<svg width="56" height="56" viewBox="0 0 56 56" fill="none" xmlns="http://www.w3.org/2000/svg">
<rect x="-0.5" y="0.5" width="55" height="55" rx="11.5" transform="matrix(-1 0 0 1 55 0)" fill="white" stroke="#DDDFDF"/>
<g clip-path="url(#clip0_80_57682)">
<path d="M35.1788 37.1995C34.0948 38.2515 32.8988 38.0875 31.7588 37.5915C30.5468 37.0855 29.4388 37.0535 28.1588 37.5915C26.5648 38.2795 25.7188 38.0795 24.7588 37.1995C19.3388 31.6195 20.1388 23.1195 26.2988 22.7995C27.7928 22.8795 28.8388 23.6255 29.7188 23.6875C31.0268 23.4215 32.2788 22.6595 33.6788 22.7595C35.3608 22.8955 36.6188 23.5595 37.4588 24.7535C33.9988 26.8335 34.8188 31.3935 37.9968 32.6735C37.3608 34.3435 36.5448 35.9935 35.1768 37.2135L35.1788 37.1995ZM29.5988 22.7395C29.4368 20.2595 31.4468 18.2195 33.7588 18.0195C34.0768 20.8795 31.1588 23.0195 29.5988 22.7395Z" fill="#141F1F"/>
</g>
<defs>
<clipPath id="clip0_80_57682">
<rect width="16.84" height="20" fill="white" transform="matrix(-1 0 0 1 38 18)"/>
</clipPath>
</defs>
</svg>
