<svg width="174" height="136" viewBox="0 0 174 136" fill="none" xmlns="http://www.w3.org/2000/svg">
<path d="M1.85731 134.156C2.0552 135.242 3.09657 135.963 4.18327 135.765C5.26996 135.567 5.99048 134.526 5.79258 133.439L3.82495 133.797L1.85731 134.156ZM174.004 21.2218L164.896 -0.000109715L151.071 18.499L174.004 21.2218ZM3.82495 133.797L5.79258 133.439C-3.1622 84.2662 22.6775 48.736 57.1832 28.0362C74.4472 17.6796 93.822 11.0856 111.938 8.42213C130.089 5.75339 146.785 7.05652 158.784 12.278L159.582 10.4441L160.38 8.61023C147.459 2.98761 129.94 1.73234 111.356 4.46468C92.7364 7.20226 72.8572 13.9688 55.1254 24.6061C19.6395 45.8939 -7.47959 82.8846 1.85731 134.156L3.82495 133.797Z" fill="#00D388"/>
</svg>
