<svg width="32" height="32" viewBox="0 0 32 32" fill="none" xmlns="http://www.w3.org/2000/svg">
<g clip-path="url(#clip0_80_58561)">
<path d="M29.4907 15.1204V17.6819C29.4907 18.3721 30.05 18.9316 30.7402 18.9316C31.4304 18.9316 31.9897 18.3721 31.9897 17.6819V10.0618C31.9897 7.30566 29.7475 5.06323 26.9914 5.06323H21.6135V3.43408C21.6135 1.54053 20.073 0 18.1794 0H13.8103C11.9167 0 10.3762 1.54053 10.3762 3.43408V5.06323H4.99829C2.24219 5.06323 0 7.30542 0 10.0615V24.6194C0 27.3755 2.24219 29.6179 4.99829 29.6179H15.5576C16.2478 29.6179 16.8071 29.0583 16.8071 28.3682C16.8071 27.6782 16.2478 27.1186 15.5576 27.1186H4.99829C3.62036 27.1186 2.49927 25.9976 2.49927 24.6194V15.1204H14.8079V16.9971C14.8079 17.687 15.3672 18.2466 16.0574 18.2466C16.7476 18.2466 17.3069 17.687 17.3069 16.9971V15.1204H29.4907ZM12.8755 3.43408C12.8755 2.9187 13.2949 2.49927 13.8103 2.49927H18.1794C18.6948 2.49927 19.1143 2.91846 19.1143 3.43408V5.06323H12.8755V3.43408ZM2.49927 10.0618C2.49927 8.68359 3.62036 7.5625 4.99829 7.5625H26.9914C28.3694 7.5625 29.4907 8.68359 29.4907 10.0618V12.6211H2.49927V10.0618ZM31.634 29.8567L28.7554 26.978C29.3 26.1123 29.6155 25.0886 29.6155 23.9924C29.6155 20.8918 27.093 18.3691 23.9924 18.3691C20.8918 18.3691 18.3691 20.8918 18.3691 23.9924C18.3691 27.093 20.8918 29.6157 23.9924 29.6157C25.0937 29.6157 26.1221 29.2971 26.9905 28.7476L29.8667 31.6238C30.1108 31.8679 30.4307 31.99 30.7505 31.99C31.0703 31.99 31.3899 31.8679 31.634 31.6238C32.1221 31.1357 32.1221 30.3447 31.634 29.8567ZM20.8684 23.9924C20.8684 22.2698 22.2698 20.8684 23.9924 20.8684C25.7148 20.8684 27.1164 22.2698 27.1164 23.9924C27.1164 25.7151 25.7148 27.1164 23.9924 27.1164C22.2698 27.1164 20.8684 25.7148 20.8684 23.9924Z" fill="#00D388"/>
</g>
<defs>
<clipPath id="clip0_80_58561">
<rect width="32" height="32" fill="white"/>
</clipPath>
</defs>
</svg>
