<svg width="23" height="24" viewBox="0 0 23 24" fill="none" xmlns="http://www.w3.org/2000/svg">
<path d="M18.3794 12C18.3854 10.2369 17.8677 8.51603 16.8988 7.07898C15.974 5.69861 14.6266 4.69608 13.0831 4.23998C11.5701 3.80651 9.95955 3.96456 8.54845 4.68498C7.09254 5.43877 5.91812 6.68509 5.21267 8.22498C4.47399 9.8174 4.22054 11.6117 4.48709 13.362C4.73844 15.0896 5.50636 16.6875 6.67901 17.923C7.80038 19.105 9.28112 19.8323 10.8608 19.977C12.4311 20.1053 13.9931 19.6363 15.2636 18.655L16.2349 20.319C14.6472 21.5448 12.6958 22.1309 10.7337 21.971C8.75892 21.7904 6.90774 20.8814 5.50575 19.404C4.03833 17.8594 3.07729 15.8609 2.76277 13.7C2.42936 11.5119 2.74608 9.26875 3.66951 7.27798C4.5519 5.35462 6.01977 3.7982 7.839 2.85698C9.60297 1.956 11.6165 1.75816 13.508 2.29998C15.437 2.86999 17.121 4.12287 18.2769 5.84798C19.4884 7.64443 20.1358 9.79577 20.1284 12V13.5C20.1319 14.2421 19.9237 14.9682 19.5308 15.584C19.1553 16.1763 18.6054 16.6218 17.9658 16.852C17.341 17.0723 16.6629 17.0564 16.048 16.807C15.4171 16.5464 14.8841 16.0755 14.5305 15.466C13.9625 16.1492 13.2132 16.6369 12.3793 16.866C11.5602 17.0861 10.6962 17.0305 9.90857 16.707C9.10057 16.3708 8.40471 15.7905 7.90824 15.039C7.3913 14.2602 7.08447 13.3481 7.02046 12.4C6.9522 11.4457 7.12775 10.4895 7.52885 9.63098C7.91509 8.79716 8.52098 8.09829 9.27404 7.61798C9.99938 7.15717 10.8424 6.94475 11.687 7.00998C12.5375 7.08237 13.3465 7.42789 14.005 7.99998H15.754V13.5C15.7517 13.8918 15.8888 14.2704 16.1381 14.561C16.2546 14.699 16.3975 14.8095 16.5574 14.8852C16.7172 14.9608 16.8905 14.9999 17.0657 14.9999C17.241 14.9999 17.4142 14.9608 17.5741 14.8852C17.734 14.8095 17.8769 14.699 17.9934 14.561C18.2434 14.2707 18.3812 13.8921 18.3794 13.5V12ZM11.3815 8.99998C10.8577 9.00023 10.3474 9.17525 9.92374 9.49998C9.48379 9.8416 9.1479 10.3111 8.95725 10.851C8.75847 11.4035 8.70697 12.0028 8.80834 12.584C8.90544 13.1571 9.15436 13.6896 9.52633 14.12C9.88318 14.5334 10.3527 14.8202 10.8703 14.941C11.3805 15.0569 11.9125 14.997 12.3879 14.77C12.876 14.5357 13.2863 14.1526 13.5659 13.67C13.8559 13.1668 14.008 12.5888 14.005 12C14.0095 11.2166 13.7354 10.4598 13.2368 9.87898C13.0022 9.60484 12.7162 9.38513 12.3968 9.23381C12.0774 9.08248 11.7317 9.00285 11.3815 8.99998Z" fill="#62646A"/>
</svg>
