<svg width="23" height="24" viewBox="0 0 23 24" fill="none" xmlns="http://www.w3.org/2000/svg">
<path d="M13.7576 22.019H9.00577C7.95594 22.0177 6.94945 21.5774 6.20711 20.7947C5.46476 20.012 5.04715 18.9509 5.0459 17.844V6.15498C5.04715 5.04811 5.46476 3.98695 6.20711 3.20427C6.94945 2.42159 7.95594 1.9813 9.00577 1.97998L13.7576 1.97998C14.8075 1.9813 15.8139 2.42159 16.5563 3.20427C17.2986 3.98695 17.7162 5.04811 17.7175 6.15498V17.844C17.7162 18.9509 17.2986 20.012 16.5563 20.7947C15.8139 21.5774 14.8075 22.0177 13.7576 22.019ZM9.00577 3.64998C8.37751 3.65209 7.77556 3.91616 7.33131 4.38454C6.88705 4.85293 6.63659 5.48759 6.63459 6.14998V17.844C6.63659 18.5064 6.88705 19.141 7.33131 19.6094C7.77556 20.0778 8.37751 20.3419 9.00577 20.344H13.7576C14.3859 20.3419 14.9878 20.0778 15.4321 19.6094C15.8763 19.141 16.1268 18.5064 16.1288 17.844V6.15498C16.1268 5.49259 15.8763 4.85793 15.4321 4.38954C14.9878 3.92116 14.3859 3.65709 13.7576 3.65498L9.00577 3.64998ZM12.9657 17.844C12.9657 17.6225 12.8822 17.4101 12.7337 17.2535C12.5852 17.097 12.3837 17.009 12.1737 17.009H10.5897C10.3797 17.009 10.1782 17.097 10.0297 17.2535C9.88119 17.4101 9.79775 17.6225 9.79775 17.844C9.79775 17.9536 9.81823 18.0622 9.85804 18.1635C9.89784 18.2648 9.95617 18.3569 10.0297 18.4344C10.1033 18.512 10.1906 18.5735 10.2866 18.6154C10.3827 18.6574 10.4857 18.679 10.5897 18.679H12.1737C12.3837 18.679 12.5852 18.591 12.7337 18.4344C12.8822 18.2778 12.9657 18.0654 12.9657 17.844Z" fill="#62646A"/>
</svg>
