<svg width="13" height="19" viewBox="0 0 13 19" fill="none" xmlns="http://www.w3.org/2000/svg">
<path d="M6.34158 14.6616H5.51262C5.23221 14.6619 4.96338 14.7794 4.76511 14.9885C4.56683 15.1975 4.45533 15.481 4.45508 15.7766V16.9826C4.45533 17.2782 4.56683 17.5617 4.76511 17.7708C4.96338 17.9798 5.23221 18.0973 5.51262 18.0976H6.34158C6.62198 18.0973 6.89084 17.9798 7.08911 17.7708C7.28739 17.5617 7.39889 17.2782 7.39914 16.9826V15.7766C7.39914 15.4809 7.2877 15.1973 7.08937 14.9882C6.89104 14.7791 6.62205 14.6616 6.34158 14.6616Z" fill="#62646A"/>
<path d="M0.499297 5.32172L2.02824 5.52172C2.26346 5.55228 2.50161 5.49872 2.70454 5.36963C2.90746 5.24053 3.06342 5.04337 3.14744 4.80972C3.33264 4.25572 3.64939 3.76099 4.06746 3.37272C4.65203 2.86721 5.39087 2.60282 6.14652 2.62872C6.89039 2.58779 7.62188 2.84177 8.19712 3.34072C8.43582 3.54915 8.62769 3.81081 8.7589 4.10686C8.89011 4.4029 8.95739 4.72595 8.95589 5.05272C8.95667 5.52961 8.80572 5.99299 8.52718 6.36872C7.99994 6.94971 7.42899 7.48479 6.81992 7.96872C6.05387 8.56208 5.40716 9.30986 4.91729 10.1687C4.61555 10.8387 4.4566 11.5701 4.45159 12.3117C4.44558 12.4621 4.46849 12.6121 4.51893 12.7529C4.56938 12.8936 4.64632 13.0221 4.74512 13.1307C4.84393 13.2393 4.96257 13.3256 5.09387 13.3846C5.22517 13.4435 5.36643 13.4739 5.50915 13.4737H6.3732C6.63807 13.4733 6.89319 13.3684 7.08838 13.1796C7.28356 12.9908 7.40469 12.7319 7.4279 12.4537C7.44237 12.13 7.50974 11.8113 7.62707 11.5117C7.96259 10.9461 8.39752 10.4533 8.90847 10.0597C9.89422 9.27279 10.7711 8.34487 11.5139 7.30272C11.9138 6.66349 12.1286 5.91544 12.1323 5.14972C12.1255 4.45859 11.9733 3.77767 11.6868 3.15601C11.4003 2.53436 10.9865 1.98746 10.4753 1.55472C9.22249 0.469828 7.62984 -0.0813337 6.01088 0.00972154C4.44614 -0.0678355 2.91068 0.475951 1.70765 1.53372C0.820161 2.31997 0.220174 3.40763 0.0108341 4.60972C-0.00435484 4.69061 -0.00356415 4.77393 0.0131497 4.85448C0.0298636 4.93503 0.0621532 5.01108 0.107988 5.07789C0.153823 5.1447 0.212218 5.20084 0.279546 5.24279C0.346875 5.28474 0.42168 5.31161 0.499297 5.32172Z" fill="#62646A"/>
</svg>
