<svg width="23" height="24" viewBox="0 0 23 24" fill="none" xmlns="http://www.w3.org/2000/svg">
<path d="M16.585 11.734C16.5196 11.6658 16.4421 11.6119 16.357 11.5753C16.2718 11.5388 16.1807 11.5202 16.0887 11.5208C15.9968 11.5213 15.9058 11.541 15.8211 11.5786C15.7363 11.6162 15.6594 11.671 15.5948 11.74C15.5301 11.8089 15.479 11.8906 15.4443 11.9804C15.4096 12.0702 15.392 12.1663 15.3926 12.2632C15.3931 12.3602 15.4117 12.4561 15.4474 12.5454C15.4831 12.6348 15.5351 12.7158 15.6005 12.784C16.1947 13.4005 16.6662 14.1359 16.9873 14.9471C17.3083 15.7583 17.4724 16.629 17.4699 17.508C17.4699 18.408 15.0143 19.723 11.1664 19.723C7.31841 19.723 4.86281 18.41 4.86281 17.506C4.86028 16.6328 5.02211 15.7677 5.33894 14.961C5.65577 14.1542 6.12129 13.4217 6.70854 12.806C6.77356 12.7374 6.82513 12.6561 6.86032 12.5665C6.89551 12.4769 6.91362 12.3809 6.91362 12.284C6.91362 12.187 6.89551 12.091 6.86032 12.0015C6.82513 11.9119 6.77356 11.8305 6.70854 11.762C6.64352 11.6934 6.56634 11.6391 6.48139 11.602C6.39644 11.5649 6.30539 11.5458 6.21344 11.5458C6.12149 11.5458 6.03044 11.5649 5.94549 11.602C5.86054 11.6391 5.78335 11.6934 5.71833 11.762C5.00036 12.5146 4.43114 13.4099 4.04365 14.396C3.65617 15.3822 3.45812 16.4396 3.46097 17.507C3.46097 19.907 7.43033 21.199 11.1654 21.199C14.9005 21.199 18.8699 19.905 18.8699 17.507C18.873 16.4326 18.6726 15.3684 18.2802 14.3768C17.8878 13.3853 17.3115 12.4864 16.585 11.733V11.734Z" fill="#62646A" stroke="#62646A" stroke-width="0.3"/>
<path d="M11.1654 12.338C12.135 12.338 13.0829 12.0348 13.8891 11.4669C14.6954 10.8989 15.3237 10.0916 15.6948 9.14709C16.0659 8.20258 16.163 7.16327 15.9738 6.16058C15.7846 5.15789 15.3177 4.23687 14.6321 3.51397C13.9464 2.79107 13.0728 2.29877 12.1218 2.09932C11.1708 1.89988 10.185 2.00224 9.28919 2.39347C8.39334 2.7847 7.62765 3.44722 7.08894 4.29726C6.55023 5.1473 6.2627 6.14667 6.2627 7.169C6.2627 8.53991 6.77922 9.85466 7.69865 10.824C8.61808 11.7934 9.86509 12.338 11.1654 12.338ZM11.1654 3.477C11.8579 3.477 12.535 3.69353 13.1108 4.09922C13.6867 4.5049 14.1355 5.08151 14.4006 5.75613C14.6656 6.43076 14.7349 7.1731 14.5998 7.88928C14.4647 8.60545 14.1312 9.26331 13.6415 9.77964C13.1517 10.296 12.5278 10.6476 11.8485 10.7901C11.1692 10.9325 10.4652 10.8594 9.82529 10.58C9.18542 10.3005 8.63852 9.82731 8.25374 9.22017C7.86897 8.61302 7.66359 7.89921 7.66359 7.169C7.66359 6.18982 8.03253 5.25075 8.68923 4.55836C9.34594 3.86598 10.2366 3.477 11.1654 3.477Z" fill="#62646A" stroke="#62646A" stroke-width="0.3"/>
</svg>
