<svg width="48" height="47" viewBox="0 0 48 47" fill="none" xmlns="http://www.w3.org/2000/svg">
<path d="M31.1927 37.5762C37.544 37.5762 42.6927 32.4274 42.6927 26.0762C42.6927 19.7249 37.544 14.5762 31.1927 14.5762C24.8414 14.5762 19.6927 19.7249 19.6927 26.0762C19.6927 32.4274 24.8414 37.5762 31.1927 37.5762Z" fill="white"/>
<path d="M21.9934 37.7376C31.5029 35.6015 37.5816 25.6813 35.5707 15.5802C33.5597 5.47916 24.2206 -0.977769 14.7111 1.15829C5.20167 3.29434 -0.877092 13.2145 1.13386 23.3156C3.1448 33.4167 12.4839 39.8736 21.9934 37.7376Z" fill="#00D388" stroke="#404145" stroke-width="1.5" stroke-miterlimit="10"/>
<path d="M21.5708 27.0977L28.6324 34.6093" stroke="#404145" stroke-width="1.5" stroke-miterlimit="10"/>
<path d="M24.2102 22.4219L32.2288 30.9287" stroke="#404145" stroke-width="1.5" stroke-miterlimit="10"/>
<path d="M28.2398 19.2012L34.7674 26.1457" stroke="#404145" stroke-width="1.5" stroke-miterlimit="10"/>
<path d="M38.2732 18.6113C43.3503 20.516 46.9969 25.6521 47.007 31.7085C47.0171 39.3913 41.1643 45.6189 33.9416 45.6296C29.5696 45.6403 25.7014 43.3718 23.324 39.8835" stroke="#404145" stroke-width="1.5" stroke-miterlimit="10"/>
<path d="M22.1048 37.7121C21.2888 35.9038 20.8355 33.8814 20.8355 31.7414C20.8254 24.0586 26.6782 17.831 33.9009 17.8203C34.5759 17.8203 35.2407 17.8738 35.8955 17.9808" stroke="#404145" stroke-width="1.5" stroke-miterlimit="10"/>
</svg>
