<svg width="40" height="40" viewBox="0 0 40 40" fill="none" xmlns="http://www.w3.org/2000/svg">
<rect x="0.5" y="0.5" width="39" height="39" rx="19.5" fill="white"/>
<rect x="0.5" y="0.5" width="39" height="39" rx="19.5" stroke="#00D388"/>
<path fill-rule="evenodd" clip-rule="evenodd" d="M12.5 18.6668C12.5 16.8 12.5 15.8666 12.8633 15.1535C13.1829 14.5263 13.6928 14.0164 14.32 13.6968C15.0331 13.3335 15.9665 13.3335 17.8333 13.3335H22.1667C24.0335 13.3335 24.9669 13.3335 25.68 13.6968C26.3072 14.0164 26.8171 14.5263 27.1367 15.1535C27.5 15.8666 27.5 16.8 27.5 18.6668V19.6668C27.5 21.5337 27.5 22.4671 27.1367 23.1802C26.8171 23.8073 26.3072 24.3172 25.68 24.6368C24.9669 25.0002 24.0335 25.0002 22.1667 25.0002H16.1785C15.9575 25.0002 15.7455 25.088 15.5893 25.2442L13.9226 26.9109C13.3976 27.4359 12.5 27.0641 12.5 26.3217V25.0002V20.8335V18.6668ZM17.5 16.6668C17.0398 16.6668 16.6667 17.0399 16.6667 17.5002C16.6667 17.9604 17.0398 18.3335 17.5 18.3335H22.5C22.9602 18.3335 23.3333 17.9604 23.3333 17.5002C23.3333 17.0399 22.9602 16.6668 22.5 16.6668H17.5ZM17.5 20.0002C17.0398 20.0002 16.6667 20.3732 16.6667 20.8335C16.6667 21.2937 17.0398 21.6668 17.5 21.6668H20C20.4602 21.6668 20.8333 21.2937 20.8333 20.8335C20.8333 20.3732 20.4602 20.0002 20 20.0002H17.5Z" fill="#00D388"/>
</svg>
