<svg width="24" height="24" viewBox="0 0 24 24" fill="none" xmlns="http://www.w3.org/2000/svg">
<path d="M12 4C14.9628 4 17.4591 5.45383 19.5098 7.84375C20.2117 8.66075 20.8256 9.53425 21.3242 10.4062C21.6265 10.934 21.8108 11.3418 21.9189 11.5938C22.0271 11.8447 22.0271 12.1552 21.9189 12.4062C21.8108 12.6582 21.6265 13.066 21.3242 13.5938C20.8256 14.4657 20.2117 15.3392 19.5098 16.1562C17.4591 18.5462 14.9628 20 12 20C9.03719 20 6.54087 18.5462 4.49023 16.1562C3.78832 15.3392 3.17443 14.4657 2.67578 13.5938C2.37355 13.066 2.18919 12.6582 2.08105 12.4062C1.97291 12.1552 1.97291 11.8447 2.08105 11.5938C2.18919 11.3418 2.37355 10.934 2.67578 10.4062C3.17443 9.53425 3.78832 8.66075 4.49023 7.84375C6.54087 5.45384 9.03719 4.00001 12 4ZM12 9C10.3432 9.00001 9 10.3432 9 12C9 13.6567 10.3432 15 12 15C13.6567 15 15 13.6567 15 12C15 10.3432 13.6567 9 12 9Z" fill="black" fill-opacity="0.2"/>
</svg>
