<svg width="38" height="38" viewBox="0 0 38 38" fill="none" xmlns="http://www.w3.org/2000/svg">
<g clip-path="url(#clip0_40_12832)">
<path d="M18.5106 37.0213C28.7338 37.0213 37.0213 28.7338 37.0213 18.5106C37.0213 8.2875 28.7338 0 18.5106 0C8.2875 0 0 8.2875 0 18.5106C0 28.7338 8.2875 37.0213 18.5106 37.0213Z" fill="#334C8C"/>
<path d="M23.2013 16.76L22.8944 19.3369C22.8812 19.4565 22.8241 19.5671 22.7341 19.6472C22.6441 19.7272 22.5277 19.7711 22.4073 19.7704H19.7281V27.4182C19.7288 27.5095 19.6933 27.5974 19.6294 27.6626C19.5655 27.7279 19.4784 27.7652 19.3871 27.7665H16.6568C16.6114 27.7659 16.5665 27.7563 16.5248 27.7383C16.4831 27.7203 16.4453 27.6943 16.4137 27.6618C16.382 27.6292 16.3571 27.5907 16.3403 27.5485C16.3235 27.5063 16.3152 27.4612 16.3158 27.4158L16.3304 19.7704H14.3016C14.1724 19.7704 14.0485 19.7191 13.9571 19.6277C13.8658 19.5364 13.8145 19.4125 13.8145 19.2833V16.7064C13.8145 16.5772 13.8658 16.4533 13.9571 16.3619C14.0485 16.2706 14.1724 16.2193 14.3016 16.2193H16.3183V13.7203C16.3183 10.8293 18.0378 9.25586 20.5562 9.25586H22.6192C22.7484 9.25586 22.8723 9.30718 22.9636 9.39853C23.055 9.48989 23.1063 9.61379 23.1063 9.74298V11.9131C23.1063 12.0423 23.055 12.1662 22.9636 12.2576C22.8723 12.3489 22.7484 12.4002 22.6192 12.4002H21.3551C19.9863 12.4222 19.7281 13.0773 19.7281 14.0564V16.212H22.7264C22.7948 16.2131 22.8621 16.2287 22.9241 16.2577C22.9861 16.2866 23.0413 16.3283 23.0861 16.38C23.1309 16.4317 23.1643 16.4922 23.1842 16.5577C23.204 16.6232 23.2099 16.6921 23.2013 16.76Z" fill="white"/>
</g>
<defs>
<clipPath id="clip0_40_12832">
<rect width="37.0213" height="37.0213" fill="white"/>
</clipPath>
</defs>
</svg>
