<svg width="56" height="56" viewBox="0 0 56 56" fill="none" xmlns="http://www.w3.org/2000/svg">
<rect x="-0.5" y="0.5" width="55" height="55" rx="11.5" transform="matrix(-1 0 0 1 55 0)" fill="white" stroke="#DDDFDF"/>
<path d="M37.9998 28.2237C37.9998 27.5654 37.9415 26.9404 37.8415 26.332H28.4248V30.0904H33.8165C33.5748 31.3237 32.8665 32.3654 31.8165 33.0737V35.5737H35.0331C36.9165 33.832 37.9998 31.2654 37.9998 28.2237Z" fill="#4285F4"/>
<path d="M28.4248 37.9999C31.1248 37.9999 33.3832 37.0999 35.0332 35.5749L31.8165 33.0749C30.9165 33.6749 29.7748 34.0415 28.4248 34.0415C25.8165 34.0415 23.6082 32.2832 22.8165 29.9082H19.4998V32.4832C21.1415 35.7499 24.5165 37.9999 28.4248 37.9999Z" fill="#34A853"/>
<path d="M22.8165 29.9092C22.6081 29.3092 22.4998 28.6676 22.4998 28.0009C22.4998 27.3342 22.6165 26.6926 22.8165 26.0926V23.5176H19.4998C18.8165 24.8676 18.4248 26.3842 18.4248 28.0009C18.4248 29.6176 18.8165 31.1342 19.4998 32.4842L22.8165 29.9092Z" fill="#FBBC05"/>
<path d="M28.4248 21.9583C29.8998 21.9583 31.2165 22.4667 32.2582 23.4583L35.1082 20.6083C33.3832 18.9917 31.1248 18 28.4248 18C24.5165 18 21.1415 20.25 19.4998 23.5167L22.8165 26.0917C23.6082 23.7167 25.8165 21.9583 28.4248 21.9583Z" fill="#EA4335"/>
</svg>
