<svg width="123" height="17" viewBox="0 0 123 17" fill="none" xmlns="http://www.w3.org/2000/svg">
<path fill-rule="evenodd" clip-rule="evenodd" d="M32.7837 10.0112C27.4993 11.5475 21.3982 13.0764 15.5289 13.4581C10.5123 13.784 5.66677 13.2779 1.70061 11.1246C1.14153 10.8214 0.441398 11.0299 0.139039 11.5909C-0.163781 12.1516 0.0445497 12.8536 0.603638 13.1573C4.93023 15.5056 10.2058 16.1198 15.6778 15.7639C21.6526 15.3757 27.8639 13.8366 33.2543 12.2782C33.8797 13.5487 35.1749 14.7333 37.4564 15.6072C40.9608 16.9498 45.7455 16.9332 50.786 16.1766C58.0966 15.0799 65.9607 12.4645 71.0169 10.6061C71.2243 10.5303 71.5331 10.4096 71.9111 10.2507C72.0263 10.5058 72.1554 10.7572 72.2982 11.004C73.5381 13.155 75.7321 14.8941 77.9675 15.5153C92.1452 19.4539 108.692 14.7346 122.164 10.894C122.773 10.7197 123.128 10.0801 122.957 9.46681C122.782 8.85351 122.146 8.49717 121.533 8.67141C108.438 12.4048 92.3618 17.1153 78.5805 13.288C76.8843 12.8166 75.2343 11.48 74.294 9.84763C74.188 9.66554 74.0958 9.47928 74.0082 9.29025C75.8657 8.36729 78.0505 7.08061 79.2258 5.70333C80.4334 4.29139 80.733 2.78425 79.6821 1.36075C78.7787 0.143851 77.4098 0.0403218 75.9855 0.671189C74.4507 1.34689 72.8698 2.92657 72.3582 3.6679C71.3995 5.05257 71.0953 6.55465 71.2704 8.01928C70.8187 8.21062 70.4519 8.35296 70.2255 8.43615C65.2799 10.2534 57.5933 12.8185 50.445 13.8912C45.8455 14.5817 41.4765 14.6736 38.2787 13.4489C36.9149 12.9262 36.0138 12.3161 35.5247 11.6081C36.4899 11.3187 37.4205 11.034 38.3096 10.7623C40.068 10.2248 43.729 9.33509 46.3447 7.74938C48.4248 6.48857 49.8352 4.77344 49.7531 2.62341C49.7112 1.51881 49.0737 0.781634 48.0593 0.368451C46.5433 -0.24855 43.9217 0.0500076 42.9454 0.257986C39.9845 0.887466 36.0327 3.49321 34.0775 6.4294C33.2971 7.60101 32.833 8.82669 32.7837 10.0112ZM35.2159 9.28932C36.0525 9.03698 36.8609 8.78925 37.6376 8.55169C39.2789 8.04977 42.7099 7.25251 45.1523 5.77171C46.4456 4.98786 47.5016 4.04874 47.4504 2.71167C47.4463 2.60768 47.3435 2.57811 47.2527 2.53559C47.1121 2.47043 46.9512 2.42559 46.7798 2.39046C45.6197 2.1529 44.0613 2.38259 43.4234 2.51847C40.9391 3.04674 37.6343 5.249 35.9939 7.71284C35.6473 8.23325 35.3712 8.76337 35.2159 9.28932ZM73.5473 6.95535C74.6305 6.39659 75.7643 5.72088 76.6585 4.98556C77.1332 4.59502 77.5342 4.19341 77.7877 3.77653C77.9998 3.43175 78.0827 3.07863 77.8292 2.73754C77.7278 2.59935 77.5757 2.5966 77.419 2.62248C77.2531 2.65021 77.0825 2.70935 76.912 2.78561C75.7874 3.28198 74.6259 4.44158 74.2525 4.98556C73.8147 5.61643 73.598 6.28382 73.5473 6.95535Z" fill="#00D388"/>
</svg>
