<svg width="38" height="38" viewBox="0 0 38 38" fill="none" xmlns="http://www.w3.org/2000/svg">
<g clip-path="url(#clip0_40_12842)">
<path d="M18.5106 37.0213C28.7338 37.0213 37.0213 28.7338 37.0213 18.5106C37.0213 8.2875 28.7338 0 18.5106 0C8.2875 0 0 8.2875 0 18.5106C0 28.7338 8.2875 37.0213 18.5106 37.0213Z" fill="url(#paint0_linear_40_12842)"/>
<path d="M22.2513 9.25586H14.7691C13.3072 9.25779 11.9058 9.83937 10.8721 10.8731C9.8384 11.9068 9.25682 13.3082 9.25488 14.7701V22.2523C9.25682 23.7141 9.8384 25.1156 10.8721 26.1493C11.9058 27.183 13.3072 27.7646 14.7691 27.7665H22.2513C23.7134 27.7652 25.1152 27.1838 26.149 26.15C27.1829 25.1162 27.7642 23.7143 27.7655 22.2523V14.7701C27.7636 13.3082 27.182 11.9068 26.1483 10.8731C25.1146 9.83937 23.7132 9.25779 22.2513 9.25586ZM25.9047 22.2523C25.9047 23.2212 25.5198 24.1505 24.8347 24.8356C24.1495 25.5208 23.2202 25.9057 22.2513 25.9057H14.7691C13.8002 25.9057 12.8709 25.5208 12.1857 24.8356C11.5006 24.1505 11.1157 23.2212 11.1157 22.2523V14.7701C11.1157 13.8011 11.5006 12.8719 12.1857 12.1867C12.8709 11.5016 13.8002 11.1167 14.7691 11.1167H22.2513C23.2202 11.1167 24.1495 11.5016 24.8347 12.1867C25.5198 12.8719 25.9047 13.8011 25.9047 14.7701V22.2523Z" fill="white"/>
<path d="M18.5106 13.7246C17.5633 13.7241 16.6372 14.0046 15.8494 14.5306C15.0615 15.0566 14.4474 15.8044 14.0847 16.6795C13.722 17.5545 13.6269 18.5175 13.8116 19.4466C13.9963 20.3757 14.4524 21.2291 15.1222 21.8989C15.792 22.5688 16.6455 23.0249 17.5746 23.2095C18.5037 23.3942 19.4666 23.2992 20.3417 22.9365C21.2168 22.5737 21.9646 21.9596 22.4906 21.1718C23.0165 20.384 23.297 19.4578 23.2965 18.5106C23.2953 17.2417 22.7906 16.0251 21.8933 15.1278C20.9961 14.2305 19.7795 13.7259 18.5106 13.7246ZM18.5106 21.4333C17.9325 21.4333 17.3674 21.2619 16.8868 20.9407C16.4062 20.6196 16.0315 20.1631 15.8103 19.6291C15.5891 19.095 15.5312 18.5073 15.644 17.9404C15.7568 17.3734 16.0351 16.8527 16.4439 16.4439C16.8526 16.0351 17.3734 15.7568 17.9404 15.644C18.5073 15.5312 19.095 15.5891 19.6291 15.8103C20.1631 16.0315 20.6196 16.4062 20.9407 16.8868C21.2619 17.3674 21.4333 17.9325 21.4333 18.5106C21.4333 19.2857 21.1254 20.0292 20.5773 20.5773C20.0291 21.1254 19.2857 21.4333 18.5106 21.4333Z" fill="white"/>
<path d="M23.3253 14.9084C23.979 14.9084 24.509 14.3785 24.509 13.7247C24.509 13.071 23.979 12.541 23.3253 12.541C22.6716 12.541 22.1416 13.071 22.1416 13.7247C22.1416 14.3785 22.6716 14.9084 23.3253 14.9084Z" fill="white"/>
</g>
<defs>
<linearGradient id="paint0_linear_40_12842" x1="18.5106" y1="36.8508" x2="18.5106" y2="2.50868" gradientUnits="userSpaceOnUse">
<stop stop-color="#E09B3D"/>
<stop offset="0.24" stop-color="#C74C4D"/>
<stop offset="0.65" stop-color="#C21975"/>
<stop offset="1" stop-color="#7024C4"/>
</linearGradient>
<clipPath id="clip0_40_12842">
<rect width="37.0213" height="37.0213" fill="white"/>
</clipPath>
</defs>
</svg>
