<svg width="40" height="40" viewBox="0 0 40 40" fill="none" xmlns="http://www.w3.org/2000/svg">
<rect x="0.5" y="0.5" width="39" height="39" rx="19.5" fill="white"/>
<rect x="0.5" y="0.5" width="39" height="39" rx="19.5" stroke="#E4E4E4"/>
<g clip-path="url(#clip0_40_13127)">
<path d="M24.9996 10H14.9999C12.2502 10 10 12.2502 10 14.9999V25.0001C10 27.7491 12.2502 30 14.9999 30H24.9996C27.7493 30 29.9995 27.7491 29.9995 25.0001V14.9999C29.9995 12.2502 27.7493 10 24.9996 10ZM28.3328 25.0001C28.3328 26.8376 26.8381 28.3333 24.9996 28.3333H14.9999C13.1622 28.3333 11.6667 26.8376 11.6667 25.0001V14.9999C11.6667 13.1619 13.1622 11.6667 14.9999 11.6667H24.9996C26.8381 11.6667 28.3328 13.1619 28.3328 14.9999V25.0001Z" fill="#67696E"/>
<path d="M25.4179 15.8339C26.1083 15.8339 26.6679 15.2743 26.6679 14.584C26.6679 13.8936 26.1083 13.334 25.4179 13.334C24.7276 13.334 24.168 13.8936 24.168 14.584C24.168 15.2743 24.7276 15.8339 25.4179 15.8339Z" fill="#67696E"/>
<path d="M19.9999 15C17.2379 15 15 17.2382 15 19.9999C15 22.7606 17.2379 25.0002 19.9999 25.0002C22.761 25.0002 24.9998 22.7606 24.9998 19.9999C24.9998 17.2382 22.761 15 19.9999 15ZM19.9999 23.3335C18.1592 23.3335 16.6667 21.8411 16.6667 19.9999C16.6667 18.1587 18.1592 16.6667 19.9999 16.6667C21.8406 16.6667 23.333 18.1587 23.333 19.9999C23.333 21.8411 21.8406 23.3335 19.9999 23.3335Z" fill="#67696E"/>
</g>
<defs>
<clipPath id="clip0_40_13127">
<rect width="20" height="20" fill="white" transform="translate(10 10)"/>
</clipPath>
</defs>
</svg>
