<svg width="25" height="25" viewBox="0 0 25 25" fill="none" xmlns="http://www.w3.org/2000/svg">
<path d="M12.5 23.9587C18.8283 23.9587 23.9583 18.8286 23.9583 12.5003C23.9583 6.17206 18.8283 1.04199 12.5 1.04199M12.5 23.9587C6.17173 23.9587 1.04166 18.8286 1.04166 12.5003C1.04166 6.17206 6.17173 1.04199 12.5 1.04199M12.5 23.9587C15.625 23.9587 16.6667 18.7503 16.6667 12.5003C16.6667 6.25033 15.625 1.04199 12.5 1.04199M12.5 23.9587C9.37499 23.9587 8.33332 18.7503 8.33332 12.5003C8.33332 6.25033 9.37499 1.04199 12.5 1.04199M2.08332 16.667H22.9167M2.08332 8.33366H22.9167" stroke="white" stroke-width="2.08333"/>
</svg>
