<svg width="24" height="24" viewBox="0 0 24 24" fill="none" xmlns="http://www.w3.org/2000/svg">
<g clip-path="url(#clip0_80_58733)">
<path d="M23.5278 11.1614L19.6736 9.23442L23.5278 7.30722C24.2172 6.96262 24.2179 5.97531 23.5278 5.63015L12.4652 0.0988774C12.2012 -0.0329591 11.8907 -0.0329591 11.6266 0.0988774L0.564074 5.63015C-0.125321 5.97494 -0.126054 6.96225 0.564074 7.30722L4.41828 9.23442L0.564074 11.1614C-0.125321 11.5062 -0.126054 12.4933 0.564074 12.8385L4.41828 14.7657L0.564074 16.6927C-0.125321 17.0375 -0.126054 18.0246 0.564074 18.3698L11.6266 23.901C11.8901 24.0327 12.2007 24.0332 12.4652 23.901L23.5278 18.3698C24.2172 18.025 24.2179 17.0379 23.5278 16.6927L19.6736 14.7657L23.5278 12.8385C24.2172 12.4939 24.2179 11.5066 23.5278 11.1614ZM12.0459 1.9856L21.0121 6.46878L12.0459 10.9518L3.07977 6.46878L12.0459 1.9856ZM21.0121 17.5313L12.0459 22.0143L3.07977 17.5313L6.51466 15.8138L11.6266 18.3698C11.8903 18.5014 12.2007 18.502 12.4652 18.3698L17.5772 15.8138L21.0121 17.5313ZM12.0459 16.483L3.07977 12.0001L6.51466 10.2825L11.6266 12.8385C11.8903 12.9701 12.2007 12.9707 12.4652 12.8385L17.5772 10.2825L21.0121 12.0001L12.0459 16.483Z" fill="#00D388"/>
</g>
<defs>
<clipPath id="clip0_80_58733">
<rect width="24" height="24" fill="white"/>
</clipPath>
</defs>
</svg>
