<svg width="38" height="38" viewBox="0 0 38 38" fill="none" xmlns="http://www.w3.org/2000/svg">
<g clip-path="url(#clip0_40_12819)">
<path d="M18.5106 37.0213C28.7338 37.0213 37.0213 28.7338 37.0213 18.5106C37.0213 8.2875 28.7338 0 18.5106 0C8.2875 0 0 8.2875 0 18.5106C0 28.7338 8.2875 37.0213 18.5106 37.0213Z" fill="#0B69C7"/>
<path d="M14.3698 11.7816C14.3703 12.2818 14.2224 12.7709 13.9447 13.1871C13.6671 13.6032 13.2723 13.9276 12.8103 14.1193C12.3482 14.3109 11.8397 14.3612 11.349 14.2637C10.8584 14.1663 10.4077 13.9254 10.054 13.5717C9.70024 13.218 9.45941 12.7673 9.36194 12.2766C9.26446 11.786 9.31474 11.2775 9.50639 10.8154C9.69804 10.3534 10.0225 9.95853 10.4386 9.68092C10.8547 9.40331 11.3438 9.25538 11.8441 9.25586C12.5137 9.25651 13.1558 9.52281 13.6293 9.99634C14.1028 10.4699 14.3692 11.1119 14.3698 11.7816Z" fill="white"/>
<path d="M13.1743 15.3633H10.5146C10.1689 15.3633 9.88867 15.6435 9.88867 15.9892V27.1419C9.88867 27.4876 10.1689 27.7678 10.5146 27.7678H13.1743C13.52 27.7678 13.8003 27.4876 13.8003 27.1419V15.9892C13.8003 15.6435 13.52 15.3633 13.1743 15.3633Z" fill="white"/>
<path d="M27.7045 21.7924V27.1921C27.7045 27.3446 27.6439 27.4908 27.5361 27.5986C27.4284 27.7064 27.2821 27.7669 27.1297 27.7669H24.2752C24.1227 27.7669 23.9765 27.7064 23.8687 27.5986C23.7609 27.4908 23.7004 27.3446 23.7004 27.1921V21.9604C23.7004 21.1786 23.9269 18.5506 21.6593 18.5506C19.9008 18.5506 19.5428 20.3578 19.4673 21.1689V27.2043C19.4641 27.3538 19.4028 27.4962 19.2964 27.6012C19.19 27.7062 19.0469 27.7657 18.8973 27.7669H16.1354C16.0598 27.7672 15.9849 27.7526 15.915 27.7238C15.8451 27.6951 15.7816 27.6527 15.7282 27.5993C15.6748 27.5458 15.6324 27.4824 15.6036 27.4125C15.5749 27.3426 15.5602 27.2677 15.5606 27.1921V15.9396C15.5602 15.8639 15.5749 15.7889 15.6036 15.7189C15.6323 15.6489 15.6746 15.5852 15.728 15.5316C15.7815 15.4779 15.8449 15.4354 15.9148 15.4063C15.9847 15.3773 16.0597 15.3624 16.1354 15.3624H18.8973C18.974 15.3611 19.0501 15.375 19.1212 15.4035C19.1924 15.4319 19.2572 15.4742 19.3118 15.5279C19.3665 15.5817 19.4099 15.6457 19.4395 15.7164C19.4691 15.7871 19.4843 15.863 19.4843 15.9396V16.9138C20.1371 15.9396 21.1064 15.1797 23.1694 15.1797C27.7313 15.1773 27.7045 19.4469 27.7045 21.7924Z" fill="white"/>
</g>
<defs>
<clipPath id="clip0_40_12819">
<rect width="37.0213" height="37.0213" fill="white"/>
</clipPath>
</defs>
</svg>
