<svg width="40" height="40" viewBox="0 0 40 40" fill="none" xmlns="http://www.w3.org/2000/svg">
<rect x="0.5" y="0.5" width="39" height="39" rx="19.5" fill="white"/>
<rect x="0.5" y="0.5" width="39" height="39" rx="19.5" stroke="#E4E4E4"/>
<path d="M28.9955 29L29 28.9993V22.3977C29 19.1682 28.3048 16.6805 24.5292 16.6805C22.7142 16.6805 21.4963 17.6765 20.999 18.6208H20.9465V16.982H17.3668V28.9993H21.0942V23.0487C21.0942 21.482 21.3912 19.967 23.3315 19.967C25.2432 19.967 25.2717 21.755 25.2717 23.1493V29H28.9955ZM11.297 16.9827H15.029V29H11.297V16.9827ZM13.1615 11C11.9683 11 11 11.9683 11 13.1615C11 14.3547 11.9683 15.3432 13.1615 15.3432C14.3547 15.3432 15.323 14.3547 15.323 13.1615C15.3226 12.5884 15.0947 12.0388 14.6895 11.6335C14.2842 11.2283 13.7346 11.0004 13.1615 11Z" fill="#67696E"/>
</svg>
