<svg width="24" height="24" viewBox="0 0 24 24" fill="none" xmlns="http://www.w3.org/2000/svg">
<path d="M12 2C14.7614 2 17 4.23858 17 7V8.1709C19.1064 8.41253 20.734 10.09 20.8887 12.2285C20.9534 13.1231 21 14.085 21 15C21 15.915 20.9534 16.8769 20.8887 17.7715C20.7283 19.9877 18.9861 21.7086 16.7686 21.8496C15.4423 21.9339 13.8205 22 12 22C10.1795 22 8.55772 21.9339 7.23145 21.8496C5.01382 21.7086 3.27165 19.9877 3.11133 17.7715C3.04667 16.8769 3 15.915 3 15C3 14.085 3.04668 13.1231 3.11133 12.2285C3.26604 10.09 4.89359 8.41253 7 8.1709V7C7 4.23858 9.23858 2 12 2ZM12 12C10.8954 12 10 12.8954 10 14C10 14.7403 10.4022 15.3866 11 15.7324V17C11 17.5523 11.4477 18 12 18C12.5523 18 13 17.5523 13 17V15.7324C13.5978 15.3866 14 14.7403 14 14C14 12.8954 13.1046 12 12 12ZM12 4C10.3431 4 9 5.34315 9 7V8.06152C9.91726 8.02517 10.9239 8 12 8C13.0761 8 14.0827 8.02517 15 8.06152V7C15 5.34315 13.6569 4 12 4Z" fill="black" fill-opacity="0.2"/>
</svg>
