<svg width="24" height="24" viewBox="0 0 24 24" fill="none" xmlns="http://www.w3.org/2000/svg">
<path fill-rule="evenodd" clip-rule="evenodd" d="M16.2413 4H7.7587H7.75859C6.95367 3.99999 6.28935 3.99998 5.74817 4.04419C5.18608 4.09012 4.66937 4.18868 4.18404 4.43597C3.43139 4.81947 2.81947 5.43139 2.43597 6.18404C2.18868 6.66937 2.09012 7.18608 2.04419 7.74818C1.99998 8.28935 1.99999 8.95367 2 9.75859V9.7587V14.2413V14.2414C1.99999 15.0464 1.99998 15.7106 2.04419 16.2518C2.09012 16.8139 2.18868 17.3306 2.43597 17.816C2.81947 18.5686 3.43139 19.1805 4.18404 19.564C4.66937 19.8113 5.18608 19.9099 5.74817 19.9558C6.28938 20 6.95374 20 7.75872 20H16.2413C17.0463 20 17.7106 20 18.2518 19.9558C18.8139 19.9099 19.3306 19.8113 19.816 19.564C20.5686 19.1805 21.1805 18.5686 21.564 17.816C21.8113 17.3306 21.9099 16.8139 21.9558 16.2518C22 15.7106 22 15.0464 22 14.2414V14.2413V9.75868V9.75858C22 8.95366 22 8.28934 21.9558 7.74817C21.9099 7.18608 21.8113 6.66937 21.564 6.18404C21.1805 5.43139 20.5686 4.81947 19.816 4.43597C19.3306 4.18868 18.8139 4.09012 18.2518 4.04419C17.7106 3.99998 17.0464 3.99999 16.2414 4H16.2413ZM7.56578 8.17538C7.11036 7.86296 6.4879 7.97889 6.17548 8.43431C5.86305 8.88974 5.97898 9.5122 6.43441 9.82462L10.303 12.4785C11.3257 13.18 12.6745 13.18 13.6972 12.4785L17.5658 9.82462C18.0212 9.5122 18.1371 8.88974 17.8247 8.43431C17.5123 7.97889 16.8898 7.86296 16.4344 8.17538L12.5658 10.8293C12.2249 11.0631 11.7753 11.0631 11.4344 10.8293L7.56578 8.17538Z" fill="black" fill-opacity="0.2"/>
</svg>
