<svg width="49" height="52" viewBox="0 0 49 52" fill="none" xmlns="http://www.w3.org/2000/svg">
<path d="M40.3376 25.515C40.3375 21.7232 39.1358 18.0402 36.9235 15.0507C34.7111 12.0613 31.6149 9.93677 28.1265 9.01458C24.6381 8.09238 20.9575 8.42535 17.6691 9.96063C14.3806 11.4959 11.673 14.1455 9.97599 17.4886C8.27902 20.8317 7.69002 24.6767 8.30252 28.4131C8.91502 32.1495 10.6939 35.563 13.3567 38.1117C16.0195 40.6603 19.4136 42.198 23 42.4805C26.5864 42.763 30.1595 41.7742 33.152 39.671L35.3904 43.209C31.6502 45.8387 27.1838 47.0755 22.7007 46.7231C18.2175 46.3707 13.9746 44.4492 10.6455 41.2638C7.31652 38.0784 5.09232 33.8117 4.32612 29.1412C3.55993 24.4707 4.29567 19.6642 6.41651 15.485C8.53735 11.3058 11.9217 7.99338 16.0322 6.07384C20.1426 4.1543 24.7435 3.73766 29.1042 4.89007C33.4649 6.04249 37.3354 8.6979 40.1011 12.4346C42.8668 16.1713 44.3692 20.7752 44.3696 25.515V28.705C44.3713 30.2987 43.8877 31.8509 42.9901 33.1332C42.0924 34.4155 40.8281 35.3601 39.3831 35.8281C37.9382 36.2961 36.3889 36.2627 34.9633 35.7329C33.5376 35.2031 32.311 34.2048 31.4637 32.885C30.1169 34.36 28.3948 35.3937 26.5043 35.8617C24.6138 36.3298 22.6353 36.2124 20.8065 35.5237C18.9778 34.8349 17.3765 33.6041 16.1952 31.9791C15.0139 30.354 14.3027 28.404 14.1471 26.3631C13.9915 24.3222 14.3982 22.2774 15.3182 20.4743C16.2382 18.6713 17.6324 17.1866 19.3334 16.1987C21.0343 15.2109 22.9696 14.7618 24.9068 14.9056C26.8439 15.0493 28.7005 15.7797 30.2535 17.009H34.2902V28.709C34.3042 29.5451 34.6291 30.342 35.1949 30.9281C35.7607 31.5141 36.5222 31.8425 37.3153 31.8425C38.1085 31.8425 38.87 31.5141 39.4358 30.9281C40.0016 30.342 40.3264 29.5451 40.3405 28.709L40.3376 25.515ZM24.2032 19.136C22.8034 19.1362 21.447 19.648 20.3651 20.5844C19.2831 21.5208 18.5426 22.8237 18.2697 24.2712C17.9967 25.7186 18.2083 27.2211 18.8683 28.5226C19.5282 29.8241 20.5958 30.844 21.8891 31.4086C23.1823 31.9733 24.6213 32.0477 25.9607 31.6191C27.3002 31.1906 28.4572 30.2857 29.2348 29.0585C30.0124 27.8313 30.3623 26.3579 30.225 24.8892C30.0877 23.4205 29.4716 22.0474 28.4817 21.004C27.9198 20.4117 27.2528 19.9418 26.5187 19.6213C25.7845 19.3008 24.9977 19.1359 24.2032 19.136Z" fill="#00D388"/>
</svg>
