<svg width="38" height="38" viewBox="0 0 38 38" fill="none" xmlns="http://www.w3.org/2000/svg">
<g clip-path="url(#clip0_40_12827)">
<path d="M18.5106 37.0213C28.7338 37.0213 37.0213 28.7338 37.0213 18.5106C37.0213 8.2875 28.7338 0 18.5106 0C8.2875 0 0 8.2875 0 18.5106C0 28.7338 8.2875 37.0213 18.5106 37.0213Z" fill="#0077DB"/>
<path d="M18.5102 9.25586C13.3954 9.25586 9.25488 13.0944 9.25488 17.8268C9.26746 19.1314 9.58606 20.4149 10.1851 21.574C10.7841 22.7331 11.6467 23.7354 12.7037 24.5003V27.7665L15.8554 26.0397C16.7202 26.2777 17.6132 26.3981 18.5102 26.3977C23.625 26.3977 27.7655 22.5616 27.7655 17.8268C27.7655 13.0919 23.625 9.25586 18.5102 9.25586ZM19.4284 20.7958L17.0732 18.2847L12.4748 20.7982L17.536 15.4277L19.9521 17.9412L24.4921 15.4277L19.4284 20.7958Z" fill="white"/>
</g>
<defs>
<clipPath id="clip0_40_12827">
<rect width="37.0213" height="37.0213" fill="white"/>
</clipPath>
</defs>
</svg>
