<svg width="40" height="40" viewBox="0 0 40 40" fill="none" xmlns="http://www.w3.org/2000/svg">
<g clip-path="url(#clip0_80_58580)">
<path d="M28.5862 10.3873C28.3142 9.93716 27.7753 9.72324 27.2687 9.86453C26.7618 10.0058 26.4115 10.4673 26.4115 10.9934C26.4115 12.4237 25.2478 13.5871 23.8178 13.5871C22.3874 13.5871 21.2241 12.4237 21.2241 10.9934V1.17189C21.2241 0.697954 20.9384 0.270707 20.5005 0.0891275C20.0626 -0.0921473 19.5584 0.00825578 19.2233 0.343339C19.0921 0.47487 15.9668 3.61788 12.8009 8.36703C10.9341 11.1673 9.44428 13.945 8.37311 16.623C7.0163 20.0153 6.32812 23.2633 6.32812 26.276C6.32812 33.8434 12.4847 40.0001 20.0519 40.0001C27.6194 40.0001 33.776 33.8434 33.776 26.276C33.776 21.4322 32.0298 16.0865 28.5862 10.3873ZM20.0519 37.6563C13.7772 37.6563 8.67188 32.551 8.67188 26.276C8.67188 20.0992 11.9638 13.8556 14.7257 9.70523C16.2225 7.45578 17.731 5.56002 18.88 4.21175V10.9934C18.88 13.7159 21.095 15.9308 23.8175 15.9308C25.4819 15.9308 26.9568 15.1032 27.8516 13.8376C30.2289 18.3143 31.4322 22.4897 31.4322 26.276C31.4322 32.551 26.3272 37.6563 20.0519 37.6563Z" fill="#00D388"/>
<path d="M26.6998 19.7783H21.6791C21.0318 19.7783 20.5072 20.3029 20.5072 20.9499C20.5069 21.5972 21.0318 22.1221 21.6788 22.1221H23.8708L18.8641 27.1285L16.1426 24.4069C15.6851 23.9495 14.9429 23.9495 14.4855 24.4069L11.8225 27.0696C11.3647 27.5274 11.3647 28.2692 11.8222 28.727C12.2799 29.1848 13.0218 29.1845 13.4796 28.727L15.314 26.8929L18.0353 29.6145C18.255 29.8342 18.5531 29.9578 18.8641 29.9578C19.1748 29.9578 19.4729 29.8342 19.6927 29.6145L25.528 23.7795V25.971C25.528 26.6179 26.0525 27.1428 26.6998 27.1428C27.3471 27.1428 27.8717 26.6179 27.8717 25.971V20.9502C27.8717 20.3029 27.3471 19.7783 26.6998 19.7783Z" fill="#00D388"/>
</g>
<defs>
<clipPath id="clip0_80_58580">
<rect width="40" height="40" fill="white"/>
</clipPath>
</defs>
</svg>
