<svg width="18" height="18" viewBox="0 0 18 18" fill="none" xmlns="http://www.w3.org/2000/svg">
<g clip-path="url(#clip0_604_585)">
<path d="M16.1156 2.26034C14.0837 0.551748 10.9441 0.808388 9 2.78768C7.05587 0.808388 3.91641 0.548232 1.88438 2.26034C-0.75937 4.48573 -0.372651 8.11386 1.51172 10.0369L7.67813 16.3193C8.02969 16.6779 8.50078 16.8783 9 16.8783C9.50274 16.8783 9.97031 16.6814 10.3219 16.3229L16.4883 10.0404C18.3691 8.11737 18.7629 4.48924 16.1156 2.26034ZM15.2859 8.85214L9.11953 15.1345C9.03516 15.2189 8.96484 15.2189 8.88047 15.1345L2.71406 8.85214C1.43087 7.54433 1.17071 5.06933 2.97071 3.55409C4.33828 2.40448 6.44766 2.57674 7.76953 3.92323L9 5.17831L10.2305 3.92323C11.5594 2.56971 13.6688 2.40448 15.0293 3.55058C16.8258 5.06581 16.5587 7.55487 15.2859 8.85214Z" fill="white"/>
</g>
<defs>
<clipPath id="clip0_604_585">
<rect width="18" height="18" fill="white"/>
</clipPath>
</defs>
</svg>
