<svg width="18" height="18" viewBox="0 0 18 18" fill="none" xmlns="http://www.w3.org/2000/svg">
<g clip-path="url(#clip0_604_581)">
<path d="M0.749756 9.75049V14.2505C0.749994 14.6482 0.908167 15.0296 1.1895 15.3108C1.47084 15.5919 1.85231 15.7499 2.25006 15.7499H15.7501C15.947 15.75 16.1421 15.7113 16.3241 15.636C16.5061 15.5607 16.6715 15.4503 16.8109 15.311C16.9502 15.1718 17.0607 15.0065 17.1361 14.8245C17.2115 14.6425 17.2504 14.4475 17.2504 14.2505V9.75049" stroke="white" stroke-width="1.8" stroke-miterlimit="10" stroke-linecap="square"/>
<path d="M17.2504 6.0003V3.7503C17.2504 3.3524 17.0923 2.97079 16.8109 2.68943C16.5296 2.40807 16.148 2.25 15.7501 2.25H2.25006C1.85215 2.25 1.47054 2.40807 1.18918 2.68943C0.907823 2.97079 0.749756 3.3524 0.749756 3.7503V6.0003L9.00006 10.5003L17.2504 6.0003Z" stroke="white" stroke-width="1.8" stroke-miterlimit="10" stroke-linecap="square"/>
</g>
<defs>
<clipPath id="clip0_604_581">
<rect width="18" height="16.2" fill="white" transform="translate(0 0.899902)"/>
</clipPath>
</defs>
</svg>
