<svg width="53" height="55" viewBox="0 0 53 55" fill="none" xmlns="http://www.w3.org/2000/svg">
<path d="M2.69934 0.982422H31.3234L36.184 7.86656V51.466H2.69934V0.982422Z" fill="white"/>
<path d="M15.6612 51.4668H16.7413C19.1716 51.4668 17.6378 52.6141 21.062 52.6141C21.7424 52.6141 30.7833 52.6141 30.7833 52.6141" stroke="#404145" stroke-width="1.47321" stroke-miterlimit="10"/>
<path d="M37.2642 35.4023H34.0237C32.8355 35.4023 31.8634 36.435 31.8634 37.697C31.8634 38.9592 32.8355 39.9918 34.0237 39.9918H37.2642C38.4524 39.9918 39.4245 38.9592 39.4245 37.697C39.4245 36.4235 38.4524 35.4023 37.2642 35.4023Z" stroke="#404145" stroke-width="1.47321" stroke-miterlimit="10"/>
<path d="M39.4245 44.582V46.8768C39.4245 48.1389 38.4524 49.1715 37.2642 49.1715H34.0237C32.8355 49.1715 31.8634 48.1389 31.8634 46.8768C31.8634 45.6147 32.8355 44.582 34.0237 44.582H35.1039" stroke="#404145" stroke-width="1.47321" stroke-miterlimit="10"/>
<path d="M37.2641 49.1719V51.4666C37.2641 52.7287 36.2919 53.7612 35.1038 53.7612H32.9435C31.7553 53.7612 30.7832 52.7287 30.7832 51.4666C30.7832 50.2045 31.7553 49.1719 32.9435 49.1719H34.0237" stroke="#404145" stroke-width="1.47321" stroke-miterlimit="10"/>
<path d="M15.661 33.1074H9.18011V52.6124H15.661V33.1074Z" fill="#00D388" stroke="#404145" stroke-width="1.47321" stroke-miterlimit="10"/>
<path d="M34.0238 39.9922H35.104C33.9158 39.9922 32.9436 41.0248 32.9436 42.287C32.9436 43.549 33.9158 44.5816 35.104 44.5816H38.3443C39.5325 44.5816 40.5047 43.549 40.5047 42.287C40.5047 41.0248 39.5325 39.9922 38.3443 39.9922H37.2643" stroke="#404145" stroke-width="1.47321" stroke-miterlimit="10"/>
<path d="M22.4553 45.0641C26.0522 43.63 27.5428 40.3945 28.623 36.5509C28.623 36.5509 28.623 33.6136 28.623 33.1088C28.623 32.5237 29.1307 31.4222 29.1307 28.8062C29.1307 26.1558 28.5366 25.1691 27.478 23.712C26.3979 22.2319 24.3024 22.5073 24.3024 23.93V25.0773C24.3024 28.2669 23.2114 30.5961 21.2239 32.9826L17.8215 35.4036H15.6612" stroke="#404145" stroke-width="1.47321" stroke-miterlimit="10"/>
<path d="M10.2603 12.4551H27.5428" stroke="#404145" stroke-width="1.47321" stroke-miterlimit="10"/>
<path d="M10.2603 17.0449H27.5428" stroke="#404145" stroke-width="1.47321" stroke-miterlimit="10"/>
<path d="M10.2603 21.6348H18.9015" stroke="#404145" stroke-width="1.47321" stroke-miterlimit="10"/>
<path d="M5.93971 51.466H1.61911V0.982422H30.7832L36.184 6.7192V31.961" stroke="#404145" stroke-width="1.47321" stroke-miterlimit="10"/>
<path d="M29.7029 3.27734V7.86676H34.0236" stroke="#404145" stroke-width="1.47321" stroke-miterlimit="10"/>
<path d="M43.7451 10.2051V12.4998" stroke="#404145" stroke-width="1.47321" stroke-miterlimit="10" stroke-linejoin="round"/>
<path d="M43.7451 14.7949V17.0896" stroke="#404145" stroke-width="1.47321" stroke-miterlimit="10" stroke-linejoin="round"/>
<path d="M42.665 13.6484H40.5047" stroke="#404145" stroke-width="1.47321" stroke-miterlimit="10" stroke-linejoin="round"/>
<path d="M46.9855 13.6484H44.8252" stroke="#404145" stroke-width="1.47321" stroke-miterlimit="10" stroke-linejoin="round"/>
<path d="M51.3062 22.8262L49.1458 25.1209" stroke="#404145" stroke-width="1.47321" stroke-miterlimit="10" stroke-linejoin="round"/>
<path d="M45.9054 28.5625L43.7451 30.8572" stroke="#404145" stroke-width="1.47321" stroke-miterlimit="10" stroke-linejoin="round"/>
<path d="M45.9054 25.1209L43.7451 22.8262" stroke="#404145" stroke-width="1.47321" stroke-miterlimit="10" stroke-linejoin="round"/>
<path d="M51.3062 30.8572L49.1458 28.5625" stroke="#404145" stroke-width="1.47321" stroke-miterlimit="10" stroke-linejoin="round"/>
</svg>
