<svg width="49" height="54" viewBox="0 0 49 54" fill="none" xmlns="http://www.w3.org/2000/svg">
<path d="M30.4364 51.344H18.2646C15.5742 51.3416 12.9946 50.2139 11.0919 48.2085C9.18927 46.203 8.11898 43.4836 8.11597 40.647V10.7C8.11823 7.86291 9.18818 5.14271 11.0909 3.13659C12.9937 1.13047 15.5737 0.00238333 18.2646 0L30.4364 0C33.1273 0.00238333 35.7073 1.13047 37.6101 3.13659C39.5128 5.14271 40.5828 7.86291 40.5851 10.7V40.647C40.582 43.4836 39.5117 46.203 37.6091 48.2085C35.7064 50.2139 33.1268 51.3416 30.4364 51.344ZM18.2646 4.279C16.6498 4.28032 15.1015 4.95725 13.9596 6.16113C12.8178 7.36501 12.1757 8.99745 12.1745 10.7V40.647C12.1765 42.349 12.8189 43.9807 13.9606 45.1839C15.1024 46.3872 16.6503 47.0637 18.2646 47.065H30.4364C32.0502 47.0629 33.5974 46.386 34.7385 45.1829C35.8797 43.9797 36.5217 42.3485 36.5237 40.647V10.7C36.5217 8.99849 35.8797 7.36728 34.7385 6.16413C33.5974 4.96098 32.0502 4.28412 30.4364 4.282L18.2646 4.279ZM28.4133 40.647C28.413 40.0798 28.1992 39.5359 27.8188 39.1348C27.4384 38.7337 26.9225 38.5083 26.3845 38.508H22.3194C21.7814 38.5083 21.2655 38.7337 20.8851 39.1348C20.5046 39.5359 20.2908 40.0798 20.2906 40.647C20.2908 41.2142 20.5046 41.7581 20.8851 42.1592C21.2655 42.5603 21.7814 42.7857 22.3194 42.786H26.3779C26.9159 42.7857 27.4317 42.5603 27.8122 42.1592C28.1926 41.7581 28.4064 41.2142 28.4067 40.647H28.4133Z" fill="#00D388"/>
</svg>
