<svg width="22" height="22" viewBox="0 0 22 22" fill="none" xmlns="http://www.w3.org/2000/svg">
<path d="M13.7913 0.0006875C13.7665 -0.000229167 8.23352 -0.000229167 8.20877 0.0006875C5.70077 0.0226875 3.66669 2.07052 3.66669 4.5831V17.4164C3.66669 19.9437 5.72277 21.9998 8.25002 21.9998H13.75C16.2773 21.9998 18.3334 19.9437 18.3334 17.4164V4.58402C18.3334 2.07052 16.2993 0.0236042 13.7913 0.0006875ZM16.5 17.4164C16.5 18.9326 15.2662 20.1664 13.75 20.1664H8.25002C6.73385 20.1664 5.50002 18.9326 5.50002 17.4164V4.58402C5.50002 3.2521 6.45152 2.13927 7.7101 1.88719L8.34627 3.16044C8.50119 3.47119 8.81927 3.66735 9.16669 3.66735H12.8334C13.1808 3.66735 13.4979 3.47119 13.6538 3.16044L14.2899 1.88719C15.5485 2.13835 16.5 3.2521 16.5 4.58402V17.4164ZM11.9167 18.3331H10.0834C9.57735 18.3331 9.16669 17.9224 9.16669 17.4164C9.16669 16.9104 9.57735 16.4998 10.0834 16.4998H11.9167C12.4227 16.4998 12.8334 16.9104 12.8334 17.4164C12.8334 17.9224 12.4227 18.3331 11.9167 18.3331Z" fill="#CCCCCC"/>
</svg>
