<svg width="40" height="40" viewBox="0 0 40 40" fill="none" xmlns="http://www.w3.org/2000/svg">
<rect x="0.5" y="0.5" width="39" height="39" rx="19.5" fill="white"/>
<rect x="0.5" y="0.5" width="39" height="39" rx="19.5" stroke="#E4E4E4"/>
<path d="M20.2716 10C14.7901 10 11.875 13.5127 11.875 17.3428C11.875 19.1192 12.8675 21.3343 14.4564 22.0368C14.6976 22.1455 14.8289 22.0993 14.8826 21.8755C14.9301 21.7055 15.1389 20.8867 15.2402 20.5005C15.2714 20.3767 15.2552 20.2692 15.1551 20.153C14.6276 19.5429 14.2089 18.4316 14.2089 17.3891C14.2089 14.7177 16.3327 12.1238 19.9466 12.1238C23.0718 12.1238 25.2581 14.1539 25.2581 17.0578C25.2581 20.3392 23.5218 22.6093 21.2654 22.6093C20.0166 22.6093 19.0866 21.6293 19.3816 20.4167C19.7379 18.9729 20.4366 17.4203 20.4366 16.379C20.4366 15.4452 19.9091 14.6727 18.8316 14.6727C17.5603 14.6727 16.529 15.9315 16.529 17.6216C16.529 18.6954 16.909 19.4204 16.909 19.4204C16.909 19.4204 15.6514 24.5007 15.4177 25.4494C15.0226 27.0558 15.4714 29.6571 15.5102 29.8809C15.5339 30.0046 15.6727 30.0434 15.7502 29.9421C15.8739 29.7796 17.394 27.6108 17.8203 26.0432C17.9753 25.4719 18.6116 23.1556 18.6116 23.1556C19.0303 23.9119 20.2391 24.5457 21.5267 24.5457C25.3569 24.5457 28.1245 21.1793 28.1245 17.0016C28.1107 12.9964 24.6831 10 20.2716 10Z" fill="#67696E"/>
</svg>
