<svg width="83" height="73" viewBox="0 0 83 73" fill="none" xmlns="http://www.w3.org/2000/svg">
<circle cx="60" cy="56" r="14" fill="#00D388"/>
<path d="M38.0417 41.7143C38.0417 43.6366 36.4923 45.1905 34.5833 45.1905H17.2917C7.75704 45.1905 0 37.3934 0 27.8095V17.381C0 7.7971 7.75704 0 17.2917 0H65.7083C75.243 0 83 7.7971 83 17.381C83 19.3033 81.4541 20.8571 79.5417 20.8571C77.6292 20.8571 76.0833 19.3033 76.0833 17.381C76.0833 11.6313 71.4284 6.95238 65.7083 6.95238H17.2917C11.5716 6.95238 6.91667 11.6313 6.91667 17.381V27.8095C6.91667 33.5591 11.5716 38.2381 17.2917 38.2381H34.5833C36.4923 38.2381 38.0417 39.792 38.0417 41.7143ZM30.1117 14.9233C28.7595 13.5641 26.5738 13.5641 25.2216 14.9233L22.4792 17.6799L19.7367 14.9233C18.3845 13.5641 16.1988 13.5641 14.8466 14.9233C13.4944 16.2825 13.4944 18.4794 14.8466 19.8386L17.5891 22.5952L14.8466 25.3519C13.4944 26.7111 13.4944 28.908 14.8466 30.2672C15.521 30.945 16.4063 31.2857 17.2917 31.2857C18.177 31.2857 19.0623 30.945 19.7367 30.2672L22.4792 27.5106L25.2216 30.2672C25.896 30.945 26.7813 31.2857 27.6667 31.2857C28.552 31.2857 29.4373 30.945 30.1117 30.2672C31.4639 28.908 31.4639 26.7111 30.1117 25.3519L27.3692 22.5952L30.1117 19.8386C31.4639 18.4794 31.4639 16.2825 30.1117 14.9233ZM50.8617 19.8386C52.2139 18.4794 52.2139 16.2825 50.8617 14.9233C49.5095 13.5641 47.3238 13.5641 45.9716 14.9233L43.2292 17.6799L40.4867 14.9233C39.1345 13.5641 36.9488 13.5641 35.5966 14.9233C34.2444 16.2825 34.2444 18.4794 35.5966 19.8386L38.3391 22.5952L35.5966 25.3519C34.2444 26.7111 34.2444 28.908 35.5966 30.2672C36.271 30.945 37.1563 31.2857 38.0417 31.2857C38.927 31.2857 39.8123 30.945 40.4867 30.2672L50.8617 19.8386ZM83 52.1429V59.0952C83 66.7637 76.7957 73 69.1667 73H55.3333C47.7043 73 41.5 66.7637 41.5 59.0952V52.1429C41.5 47.019 44.3013 42.5833 48.4167 40.1709V34.7619C48.4167 27.0934 54.6209 20.8571 62.25 20.8571C69.8791 20.8571 76.0833 27.0934 76.0833 34.7619V40.1709C80.1987 42.5833 83 47.019 83 52.1429ZM55.3333 38.2381H69.1667V34.7619C69.1667 30.9277 66.0645 27.8095 62.25 27.8095C58.4355 27.8095 55.3333 30.9277 55.3333 34.7619V38.2381ZM76.0833 52.1429C76.0833 48.3086 72.9812 45.1905 69.1667 45.1905H55.3333C51.5188 45.1905 48.4167 48.3086 48.4167 52.1429V59.0952C48.4167 62.9295 51.5188 66.0476 55.3333 66.0476H69.1667C72.9812 66.0476 76.0833 62.9295 76.0833 59.0952V52.1429ZM62.25 50.4048C59.3865 50.4048 57.0625 52.7408 57.0625 55.619C57.0625 58.4973 59.3865 60.8333 62.25 60.8333C65.1135 60.8333 67.4375 58.4973 67.4375 55.619C67.4375 52.7408 65.1135 50.4048 62.25 50.4048Z" fill="black"/>
</svg>
