<svg width="211" height="171" viewBox="0 0 211 171" fill="none" xmlns="http://www.w3.org/2000/svg">
<path d="M210.907 149.703C207.794 159.141 198.544 158.652 190.232 157.141C192.316 170.007 182.136 171.003 172.031 170.372V162.926C174.788 162.727 183.614 164.255 183.614 160.038V131.516H190.232V146.806C190.232 150.99 199.889 151.679 202.305 149.778C204.721 147.877 202.845 135.127 203.459 131.508H210.907V149.695V149.703Z" fill="white"/>
<path d="M105.038 75.3027L70.3133 1.30075C70.1057 0.0307208 70.2718 -0.118694 71.5422 0.0639241C74.3404 0.470665 85.492 7.62599 88.4065 9.668C104.914 21.2394 118.224 38.4055 125.73 57.1073L136.458 30.6691C141.839 44.9051 139.855 59.4232 133.162 72.8208C134.059 73.6841 149.038 66.3129 153.14 66.6699C158.338 67.1264 163.005 73.3188 166.243 76.9463L159.741 76.249C151.645 93.9962 132.265 97.5988 114.579 98.4787C91.9354 99.6076 69.458 96.5695 47.1384 93.4733L90.9805 85.6373C101.493 82.7735 112.378 80.4908 122.617 76.7388C123.489 76.415 125.066 76.4566 124.883 75.2861H105.03L105.038 75.3027Z" fill="#52BC7F"/>
<path d="M16.5405 132.347V150.119C16.5405 152.742 22.2781 153.696 24.3623 153.871C27.4761 154.128 45.4863 154.634 45.4863 150.941V135.65C47.0971 135.684 49.7044 135.094 50.3355 137.003L51.473 152.817C54.3626 155.68 62.035 153.871 62.035 150.119V135.65H66.1701V150.119C66.1701 153.622 73.0039 155.465 76.0678 153.389C76.5328 153.074 78.5755 149.529 78.5755 149.289V132.347H82.7106V150.119C82.7106 154.776 97.5986 155.083 97.5986 149.289V132.347H101.734V150.949C101.734 151.505 98.8774 155.797 98.047 156.353C95.5145 158.046 89.5609 158.403 86.6215 157.78C84.8529 157.407 81.764 154.817 81.4651 154.817C81.0001 154.817 77.5043 158.851 73.2114 158.868C68.9186 158.884 66.469 155.855 64.7834 155.581C64.3268 155.506 60.1003 158.793 56.6627 158.785C52.6853 158.777 50.0697 155.971 48.2513 155.647C47.7946 155.564 41.675 157.789 39.3251 157.988C32.5827 158.586 22.8179 158.552 16.5571 156.303C18.0185 169.128 11.3923 171.278 0 170.356V166.214C3.22174 166.936 12.4136 166.031 12.4136 161.674V132.33H16.5488L16.5405 132.347Z" fill="white"/>
<path d="M146.39 170.373V162.935H160.041C161.178 162.935 162.698 159.299 162.108 157.979C156.437 158.469 146.738 158.054 145.609 150.899C145.227 148.491 145.219 141.021 145.734 138.721C148.125 128.005 167.921 127.382 169.548 141.851C170.154 147.238 170.437 164.811 166.218 168.281C165.662 168.737 161.319 170.364 160.863 170.364H146.39V170.373ZM161.087 139.153C160.165 138.232 157.251 137.908 155.947 138.115C151.305 138.846 150.882 147.67 154.668 150.118L162.116 150.533C161.793 147.827 162.963 141.021 161.087 139.153Z" fill="white"/>
<path d="M133.162 121.596V136.886C133.162 138.911 130.671 142.954 129.11 144.448C141.757 163.233 124.211 162.892 109.996 161.282C110.303 159.564 109.431 156.127 110.179 154.832C110.893 153.612 119.395 148.258 121.164 146.39C121.72 145.809 122.576 145.469 122.351 144.431C120.765 141.883 107.289 130.42 107.58 128.726C107.729 127.838 109.44 126.219 110.826 126.917C113.002 128.012 125.083 141.41 126.138 141.418C130.613 136.023 129.144 127.954 128.205 121.596H133.162ZM114.97 157.14C118.042 156.783 126.952 158.261 128.645 155.505C129.824 153.571 127.309 147.86 125.44 148.142C124.859 148.233 117.187 154.26 116.016 155.256C115.418 155.762 114.455 155.231 114.97 157.148V157.14Z" fill="white"/>
<path d="M205.95 162.926H199.324V170.372H205.95V162.926Z" fill="white"/>
<path d="M101.734 122.418H97.5903V127.39H101.734V122.418Z" fill="white"/>
</svg>
