<svg width="20" height="20" viewBox="0 0 20 20" fill="none" xmlns="http://www.w3.org/2000/svg">
<path d="M7.7041 11.9414L5.44824 14.1982L5.27148 14.375L5.44824 14.5518C7.92087 17.0244 12.0791 17.0244 14.5518 14.5518C15.411 13.6925 16.0331 12.4954 16.3193 11.2812L18.3389 11.584C18.0562 13.2982 17.2332 14.7882 16.0732 15.9482C12.7977 19.2238 7.4538 19.2284 4.04883 15.9453L3.87207 15.7744L3.69824 15.9482L1.31641 18.3291L0.53125 11.1562L7.7041 11.9414Z" fill="#00D388" stroke="white" stroke-width="0.5"/>
<path d="M9.875 1.625C12.0622 1.625 14.2476 2.47607 15.8232 4.05176L16 4.22852L16.1768 4.05176L18.5645 1.66309L19.4619 8.8418L12.2949 8.05762L14.5518 5.80176L14.7285 5.625L14.5518 5.44824C12.0791 2.97561 7.92087 2.97561 5.44824 5.44824C4.5892 6.30728 3.966 7.50388 3.67969 8.71777L1.66016 8.41504C1.94291 6.70115 2.76693 5.21159 3.92676 4.05176C5.62552 2.35299 7.68488 1.625 9.875 1.625Z" fill="#00D388" stroke="white" stroke-width="0.5"/>
</svg>
