<svg width="49" height="47" viewBox="0 0 49 47" fill="none" xmlns="http://www.w3.org/2000/svg">
<path d="M12.8333 23.3691H6.83325V40.3691H12.8333V23.3691Z" fill="white"/>
<path d="M23.8333 16.3691H16.8333V40.3691H23.8333V16.3691Z" fill="white"/>
<path d="M34.8333 16.3691H27.8333V40.3691H34.8333V16.3691Z" fill="white"/>
<path d="M31.3333 24.3691C36.58 24.3691 40.8333 20.1158 40.8333 14.8691C40.8333 9.62243 36.58 5.36914 31.3333 5.36914C26.0865 5.36914 21.8333 9.62243 21.8333 14.8691C21.8333 20.1158 26.0865 24.3691 31.3333 24.3691Z" fill="#00D388" stroke="#404145" stroke-width="1.5" stroke-miterlimit="10"/>
<path d="M34.8333 20.3691V12.3691H27.8333V20.3691" stroke="#404145" stroke-width="1.5" stroke-miterlimit="10"/>
<path d="M27.8333 26.3691V38.3691" stroke="#404145" stroke-width="1.5" stroke-miterlimit="10"/>
<path d="M34.8333 38.3691V26.3691" stroke="#404145" stroke-width="1.5" stroke-miterlimit="10"/>
<path d="M19.8333 16.3691H16.8333V38.3691" stroke="#404145" stroke-width="1.5" stroke-miterlimit="10"/>
<path d="M12.8333 38.3691V23.3691H5.83325V38.3691" stroke="#404145" stroke-width="1.5" stroke-miterlimit="10"/>
<path d="M45.8333 40.3691H0.833252" stroke="#404145" stroke-width="1.5" stroke-miterlimit="10" stroke-linejoin="round"/>
<path d="M23.8333 24.3691V38.3691" stroke="#404145" stroke-width="1.5" stroke-miterlimit="10"/>
<path d="M39.1133 20.3184L46.7233 27.9284C47.5033 28.7084 47.5033 29.9785 46.7233 30.7585C45.9433 31.5385 44.6733 31.5385 43.8933 30.7585L36.1733 23.0384" stroke="#404145" stroke-width="1.5" stroke-miterlimit="10" stroke-linecap="round"/>
</svg>
