<svg width="49" height="52" viewBox="0 0 49 52" fill="none" xmlns="http://www.w3.org/2000/svg">
<path d="M23.0174 3.452C22.836 3.26736 22.6169 3.12904 22.3768 3.04769C22.1368 2.96634 21.8822 2.94413 21.6328 2.98277C21.3833 3.0214 21.1456 3.11985 20.9379 3.27055C20.7302 3.42124 20.558 3.62016 20.4347 3.852L10.2168 23.657L4.6483 29.371C3.84214 30.1961 3.26434 31.2371 2.97693 32.3823C2.68951 33.5274 2.70334 34.7335 3.01693 35.871C2.03526 37.1374 1.54057 38.7464 1.63086 40.3792C1.72115 42.012 2.38984 43.5494 3.50444 44.687C4.64016 45.8459 6.13401 46.5343 7.71212 46.6262C9.29024 46.718 10.8469 46.2071 12.0967 45.187C12.6628 45.3586 13.2481 45.4504 13.8371 45.46C14.9897 45.453 16.1207 45.1297 17.1188 44.522L21.3016 48.812C22.0734 49.5928 23.1016 50.0287 24.1712 50.0287C25.2408 50.0287 26.269 49.5928 27.0408 48.812C27.4162 48.4304 27.7148 47.9729 27.9187 47.4669C28.1226 46.9609 28.2277 46.4168 28.2277 45.867C28.2277 45.3172 28.1226 44.7731 27.9187 44.2671C27.7148 43.7611 27.4162 43.3036 27.0408 42.922L23.0183 38.795L23.9943 37.795L43.2948 27.308C43.5175 27.1885 43.7103 27.0153 43.8574 26.8024C44.0046 26.5896 44.102 26.3431 44.1418 26.083C44.1789 25.8242 44.1567 25.5597 44.077 25.3118C43.9973 25.0639 43.8624 24.8397 43.6837 24.658L23.0174 3.452ZM5.79785 42.33C5.39964 41.9227 5.11259 41.41 4.96675 40.8457C4.82091 40.2813 4.82165 39.686 4.96889 39.122L8.92307 43.18C8.37671 43.3323 7.80239 43.3342 7.25517 43.1853C6.70794 43.0365 6.20613 42.742 5.79785 42.33ZM11.538 41.152L6.94456 36.439C6.64439 36.1336 6.40566 35.7676 6.2426 35.3628C6.07955 34.958 5.99551 34.5228 5.99551 34.083C5.99551 33.6432 6.07955 33.2079 6.2426 32.8032C6.40566 32.3984 6.64439 32.0324 6.94456 31.727L11.538 27.014L20.723 36.439L16.1296 41.152C15.5126 41.7776 14.6898 42.127 13.8338 42.127C12.9778 42.127 12.155 41.7776 11.538 41.152ZM24.7408 45.275C24.8149 45.3518 24.8738 45.4434 24.914 45.5444C24.9542 45.6455 24.9749 45.7539 24.9749 45.8635C24.9749 45.9731 24.9542 46.0815 24.914 46.1826C24.8738 46.2836 24.8149 46.3752 24.7408 46.452C24.5851 46.6057 24.3797 46.6912 24.1665 46.6912C23.9532 46.6912 23.7479 46.6057 23.5922 46.452L19.5725 42.329L20.7211 41.15L24.7408 45.275ZM23.318 34.391L13.5345 24.345L22.2757 7.404L39.831 25.419L23.318 34.391ZM29.2005 5.045V1.712C29.2005 1.25795 29.3716 0.822495 29.6761 0.501433C29.9806 0.180371 30.3936 0 30.8243 0C31.2549 0 31.6679 0.180371 31.9725 0.501433C32.277 0.822495 32.4481 1.25795 32.4481 1.712V5.045C32.4481 5.49905 32.277 5.9345 31.9725 6.25557C31.6679 6.57663 31.2549 6.757 30.8243 6.757C30.3936 6.757 29.9806 6.57663 29.6761 6.25557C29.3716 5.9345 29.2005 5.49905 29.2005 5.045ZM47.0602 16.705C47.0574 16.9268 47.0131 17.1459 46.93 17.3496C46.8468 17.5534 46.7264 17.7379 46.5756 17.8926C46.4249 18.0473 46.2466 18.1692 46.0512 18.2513C45.8557 18.3334 45.6468 18.374 45.4364 18.371H42.1898C41.9777 18.3787 41.7663 18.3414 41.5682 18.2612C41.37 18.1809 41.1892 18.0595 41.0366 17.904C40.8839 17.7485 40.7625 17.5622 40.6796 17.3562C40.5967 17.1503 40.554 16.9288 40.554 16.705C40.554 16.4812 40.5967 16.2597 40.6796 16.0538C40.7625 15.8478 40.8839 15.6615 41.0366 15.506C41.1892 15.3505 41.37 15.2291 41.5682 15.1488C41.7663 15.0686 41.9777 15.0313 42.1898 15.039H45.4364C45.6468 15.036 45.8557 15.0766 46.0512 15.1587C46.2466 15.2408 46.4249 15.3627 46.5756 15.5174C46.7264 15.6721 46.8468 15.8566 46.93 16.0604C47.0131 16.2641 47.0574 16.4832 47.0602 16.705ZM36.1708 11.219C36.0204 11.0665 35.9007 10.8836 35.8189 10.6812C35.7372 10.4788 35.695 10.261 35.695 10.041C35.695 9.82099 35.7372 9.60324 35.8189 9.40082C35.9007 9.1984 36.0204 9.01547 36.1708 8.863L39.4184 5.531C39.7268 5.21783 40.1383 5.04287 40.5665 5.04287C40.9947 5.04287 41.4062 5.21783 41.7146 5.531C41.8651 5.68347 41.9848 5.8664 42.0665 6.06882C42.1483 6.27124 42.1904 6.48899 42.1904 6.709C42.1904 6.92901 42.1483 7.14676 42.0665 7.34918C41.9848 7.5516 41.8651 7.73453 41.7146 7.887L38.4671 11.219C38.1587 11.5322 37.7471 11.7071 37.3189 11.7071C36.8908 11.7071 36.4792 11.5322 36.1708 11.219Z" fill="#00D388"/>
</svg>
