<svg width="16" height="16" viewBox="0 0 16 16" fill="none" xmlns="http://www.w3.org/2000/svg">
<path d="M11.8506 14.2227C11.4746 15.286 10.4605 16 9.32984 16H2.66968C1.88966 16 1.15031 15.66 0.640297 15.068C0.138285 14.4847 -0.0843869 13.718 0.0289491 12.9627C0.298956 11.164 1.28565 9.49733 2.96302 8C1.28565 6.50267 0.298956 4.836 0.0289491 3.03733C-0.0843869 2.28267 0.138285 1.51533 0.640297 0.932667C1.15031 0.34 1.88966 0 2.66968 0H9.32984C10.4605 0 11.4746 0.714 11.8506 1.77733C11.9739 2.12467 11.7919 2.50533 11.4452 2.628C11.0979 2.75267 10.7172 2.56933 10.5945 2.22267C10.4059 1.69067 9.89785 1.33333 9.33051 1.33333H2.66968C2.27834 1.33333 1.90633 1.50467 1.65099 1.802C1.39898 2.09467 1.29165 2.46267 1.34831 2.83867C1.59832 4.50467 2.62968 6.06533 4.41372 7.47733C4.57373 7.60333 4.66706 7.79667 4.66706 8C4.66706 8.20333 4.57373 8.39667 4.41372 8.52267C2.62968 9.93467 1.59832 11.4947 1.34831 13.1607C1.29165 13.5367 1.39898 13.9053 1.65099 14.198C1.90699 14.4953 2.27834 14.6667 2.66968 14.6667H9.32984C9.89785 14.6667 10.4052 14.3093 10.5939 13.778C10.7172 13.4307 11.0992 13.2473 11.4446 13.3727C11.7919 13.4953 11.9732 13.8767 11.8499 14.2233L11.8506 14.2227ZM6.4171 9.296L6.75578 9.566C7.53713 10.1873 8.57382 11.1867 9.07183 12.416C9.15517 12.622 9.1305 12.8553 9.0065 13.0393C8.8825 13.2227 8.67582 13.3333 8.45382 13.3333H3.5457C3.32436 13.3333 3.11702 13.2227 2.99302 13.0393C2.86902 12.856 2.84435 12.6227 2.92702 12.4173C3.42436 11.182 4.46039 10.1867 5.24174 9.56867L5.58842 9.29467C5.83109 9.102 6.17443 9.10267 6.4171 9.296ZM5.99909 10.6693C5.57842 11.0087 5.08507 11.4653 4.68906 12H7.30779C6.91178 11.468 6.41977 11.0107 5.99909 10.6693ZM16 8.00067C16 10.2067 14.206 12.0007 11.9999 12.0007C9.79385 12.0007 7.99981 10.2067 7.99981 8.00067C7.99981 5.79467 9.79385 4.00067 11.9999 4.00067C14.206 4.00067 16 5.79467 16 8.00067ZM14.6666 8.00067C14.6666 6.53 13.4706 5.334 11.9999 5.334C10.5292 5.334 9.33317 6.53 9.33317 8.00067C9.33317 9.47133 10.5292 10.6673 11.9999 10.6673C13.4706 10.6673 14.6666 9.47133 14.6666 8.00067ZM12.6666 7.72467V6.66733C12.6666 6.29933 12.3686 6.00067 11.9999 6.00067C11.6312 6.00067 11.3332 6.29933 11.3332 6.66733V8.00067C11.3332 8.17733 11.4032 8.34733 11.5286 8.472L12.1952 9.13867C12.3252 9.26867 12.4959 9.334 12.6666 9.334C12.8373 9.334 13.0079 9.26867 13.1379 9.13867C13.3986 8.878 13.3986 8.45667 13.1379 8.196L12.6666 7.72467Z" fill="#F08504"/>
</svg>
