<svg width="40" height="40" viewBox="0 0 40 40" fill="none" xmlns="http://www.w3.org/2000/svg">
<path d="M9.93508 30.451C13.0727 33.693 16.9326 36.1469 21.1996 37.6123C18.077 39.6446 12.1673 37.7285 7.40605 32.9801C2.64476 28.2317 0.709274 22.322 2.74153 19.1865C4.21382 23.4579 6.67929 27.3186 9.93508 30.451Z" fill="url(#paint0_linear_1_393)"/>
<path d="M32.4323 33.7734C32.1468 34.3357 31.7745 34.8495 31.3291 35.296C29.5098 37.1153 26.6775 37.625 23.4517 36.9863L22.8065 36.8508C22.5936 36.7992 22.3872 36.7476 22.1614 36.6831C18.4452 35.6443 14.342 33.1992 10.7356 29.5863C7.12912 25.9734 4.68396 21.8766 3.6388 18.1605C3.57428 17.9476 3.51621 17.7411 3.4646 17.5153C3.41299 17.2895 3.36782 17.0895 3.32911 16.8702C2.68395 13.6443 3.20009 10.8121 5.01944 8.99273C5.46931 8.54675 5.98499 8.17249 6.54847 7.88306C6.25542 9.82411 6.38973 11.8057 6.94202 13.6895C7.14347 14.4565 7.39123 15.2106 7.68395 15.9476C7.76137 16.1476 7.85169 16.354 7.93556 16.554C8.01943 16.754 8.11621 16.9734 8.21299 17.1992C9.76247 20.4534 11.8745 23.4085 14.4517 25.9282C16.9589 28.4791 19.8935 30.5709 23.1227 32.1089L23.7678 32.3863L24.3743 32.6379C25.1134 32.9248 25.8671 33.1725 26.6323 33.3798C27.9191 33.7337 29.2462 33.9202 30.5807 33.9347C31.2014 33.9331 31.8208 33.8792 32.4323 33.7734Z" fill="url(#paint1_linear_1_393)"/>
<path d="M37.807 25.3023C37.8726 26.2968 37.7347 27.2943 37.402 28.2339C37.0692 29.1734 36.5485 30.0352 35.8715 30.7668C35.4258 31.2177 34.9093 31.5925 34.3425 31.8765C34.123 31.9956 33.8943 32.097 33.6586 32.1797C33.4375 32.2684 33.2113 32.3439 32.9812 32.4055C30.9805 32.8657 28.8942 32.7946 26.9296 32.1991C25.9824 31.9449 25.0551 31.6215 24.1554 31.2313L23.5102 30.9345C23.278 30.8184 23.0393 30.7087 22.807 30.5861C17.2625 27.6569 12.7298 23.1242 9.80054 17.5797C9.67796 17.3474 9.56184 17.1087 9.45216 16.8765C9.34248 16.6442 9.25216 16.4378 9.16184 16.2313C8.77065 15.3335 8.44506 14.4085 8.18764 13.4636C7.59072 11.4967 7.52175 9.40745 7.98764 7.40551C8.05216 7.17325 8.12313 6.94744 8.207 6.72809C8.29098 6.5075 8.38792 6.29207 8.49732 6.08293C8.78771 5.50901 9.16652 4.98432 9.6199 4.52809C10.3323 3.86752 11.1696 3.35602 12.0826 3.02364C12.9955 2.69126 13.9657 2.54471 14.936 2.5926H15.0715C14.9163 2.71345 14.7697 2.84495 14.6328 2.98615C13.7761 3.86056 13.1931 4.96595 12.9554 6.1668C12.9167 6.35389 12.8844 6.54744 12.8522 6.74099C12.8199 6.93454 12.807 7.12809 12.7941 7.33454C12.4909 11.4184 14.8328 16.7603 19.2457 21.1732C23.407 25.3345 28.3941 27.6249 32.3747 27.6249C32.6134 27.6249 32.8457 27.6249 33.078 27.6249C33.3102 27.6249 33.4844 27.6249 33.6844 27.5603C33.8862 27.5343 34.0865 27.4977 34.2844 27.4507C34.5933 27.3861 34.8973 27.2998 35.1941 27.1926C36.0349 26.8945 36.7993 26.4142 37.4328 25.7861C37.5685 25.6337 37.6936 25.472 37.807 25.3023Z" fill="url(#paint2_linear_1_393)"/>
<path d="M38.0776 20.6831C38.0791 21.1287 38.0402 21.5736 37.9615 22.0121C37.8943 22.4303 37.7796 22.8394 37.6195 23.2315C37.3789 23.8566 37.0122 24.4254 36.5421 24.9025C35.8378 25.5837 34.9576 26.0551 34.0002 26.2638C33.8002 26.3154 33.6002 26.3476 33.3937 26.3799C33.1873 26.4121 32.9937 26.4251 32.7486 26.4315C29.0711 26.6444 24.1615 24.4057 20.0453 20.2896C15.9292 16.1734 13.6776 11.2573 13.897 7.56699C13.9061 7.36613 13.9255 7.16587 13.955 6.96699C13.981 6.77372 14.0176 6.58204 14.0647 6.39279C14.2626 5.41883 14.7376 4.52273 15.4324 3.81215C15.8922 3.35288 16.4381 2.98893 17.0389 2.74118C17.452 2.57447 17.8827 2.45542 18.3228 2.38634C18.7803 2.30254 19.2447 2.2615 19.7099 2.26376H20.1292C20.6777 2.28814 21.2234 2.355 21.7615 2.46376C21.622 2.53981 21.4883 2.62607 21.3615 2.72183C21.1701 2.85404 20.9909 3.00302 20.826 3.16699C20.6841 3.31196 20.5505 3.4649 20.426 3.62505C19.4647 4.91537 19.2131 6.63795 19.5937 8.56053C19.6453 8.8272 19.7099 9.09172 19.7873 9.35408C19.8647 9.64441 19.9615 9.94118 20.0712 10.2315C20.9617 12.5082 22.3301 14.5674 24.084 16.2702C25.7842 18.0228 27.8415 19.3892 30.1163 20.2767C30.4131 20.3863 30.7034 20.4831 30.9937 20.5605C31.2608 20.6403 31.5322 20.7049 31.8066 20.7541C32.3458 20.8654 32.8948 20.9216 33.4453 20.9218C34.1504 20.9307 34.8515 20.8149 35.5163 20.5799C35.9511 20.4279 36.3602 20.2104 36.7292 19.9347C36.8916 19.8178 37.0428 19.6861 37.1808 19.5412C37.3372 19.3844 37.4817 19.2162 37.6131 19.038C37.7073 18.9101 37.7935 18.7765 37.8711 18.638C37.9792 19.1805 38.0461 19.7305 38.0711 20.2831C38.0711 20.3863 38.0776 20.5476 38.0776 20.6831Z" fill="url(#paint3_linear_1_393)"/>
<path d="M37.3038 15.8704C37.3038 16.0962 37.3038 16.3091 37.3038 16.5156C37.2597 16.9008 37.1642 17.2783 37.0199 17.6382C36.9258 17.8644 36.8091 18.0806 36.6715 18.2833C36.5658 18.4333 36.4471 18.5736 36.3167 18.7027L36.2393 18.7801C35.0586 19.8833 33.0715 19.9866 30.8844 19.264C30.5619 19.1543 30.2393 19.0317 29.9038 18.8898C29.5683 18.7479 29.149 18.5414 28.7683 18.335C25.9537 16.7678 23.6322 14.4464 22.0651 11.6317C21.8586 11.2609 21.6713 10.8798 21.5038 10.4898C21.3619 10.1672 21.2393 9.84463 21.1361 9.5285C20.4135 7.3414 20.4909 5.35431 21.607 4.16721L21.6909 4.08334C21.8217 3.9548 21.9618 3.8362 22.1103 3.7285C22.3108 3.58559 22.5273 3.46651 22.7554 3.37366C23.1171 3.23069 23.4972 3.13947 23.8844 3.10269C24.0877 3.07634 24.2924 3.06341 24.4974 3.06398C24.8561 3.06629 25.2142 3.09649 25.5683 3.15431C25.6909 3.15431 25.8199 3.19302 25.949 3.21882C25.9255 3.24518 25.9039 3.27321 25.8844 3.30269C25.7637 3.46467 25.6619 3.64002 25.5812 3.82527C25.4452 4.12802 25.3476 4.44663 25.2909 4.77366C25.2569 5.00004 25.2397 5.22862 25.2393 5.45753C25.2332 5.70976 25.2461 5.96209 25.278 6.21237C25.3173 6.52412 25.3799 6.8325 25.4651 7.13495C26.0152 8.97278 27.0308 10.6373 28.4135 11.9672C29.9403 13.6097 31.9604 14.7104 34.1683 15.1027C34.3821 15.1325 34.5976 15.1475 34.8135 15.1479H34.8974C35.1137 15.1466 35.3295 15.1271 35.5425 15.0898C35.8707 15.0381 36.19 14.9404 36.4909 14.7995C36.6812 14.725 36.8595 14.6228 37.0199 14.4962C37.0529 14.4853 37.082 14.4652 37.1038 14.4382C37.1038 14.5737 37.1554 14.7027 37.1748 14.8317C37.2444 15.1741 37.2876 15.5214 37.3038 15.8704Z" fill="url(#paint4_linear_1_393)"/>
<path d="M37.148 12.2898C37.0995 12.4987 37.019 12.6989 36.9093 12.8833C36.8701 12.9503 36.827 13.0149 36.7803 13.0769C36.7279 13.1464 36.6719 13.2132 36.6125 13.2769L36.49 13.3801C36.3351 13.5146 36.1584 13.6215 35.9674 13.6962C35.6048 13.8427 35.2165 13.9151 34.8254 13.9091C34.5614 13.9048 34.2982 13.8789 34.0383 13.8317C33.7197 13.7757 33.4066 13.6915 33.1029 13.5801C31.6641 13.0263 30.3574 12.1768 29.2672 11.0867C28.1771 9.99652 27.3277 8.68986 26.7738 7.25105C26.7222 7.10267 26.6835 6.96073 26.6383 6.80589C26.5953 6.64873 26.5609 6.48936 26.5351 6.32847C26.4812 6.0717 26.4532 5.81018 26.4513 5.54783C26.4414 5.15708 26.5117 4.76846 26.6577 4.40589C26.7375 4.22143 26.8441 4.0497 26.9738 3.89621C27.0069 3.85239 27.0436 3.81139 27.0835 3.77363C27.1419 3.71101 27.2068 3.65478 27.2771 3.60589C27.3346 3.55926 27.3949 3.51617 27.4577 3.47686C27.6448 3.36663 27.8469 3.28405 28.0577 3.2317C28.3178 3.17081 28.5841 3.1405 28.8513 3.14138C29.0519 3.14183 29.2522 3.15476 29.4512 3.18009C31.363 3.55824 33.1102 4.52086 34.4512 5.93492C35.8688 7.26567 36.8382 9.00376 37.2254 10.9091C37.292 11.3699 37.2656 11.8393 37.148 12.2898Z" fill="url(#paint5_linear_1_393)"/>
<defs>
<linearGradient id="paint0_linear_1_393" x1="1.93508" y1="28.7994" x2="21.1673" y2="28.7994" gradientUnits="userSpaceOnUse">
<stop stop-color="#F08504"/>
<stop offset="1" stop-color="#E5322D"/>
</linearGradient>
<linearGradient id="paint1_linear_1_393" x1="3.10976" y1="22.5798" x2="32.4323" y2="22.5798" gradientUnits="userSpaceOnUse">
<stop stop-color="#E53282"/>
<stop offset="1" stop-color="#851D7B"/>
</linearGradient>
<linearGradient id="paint2_linear_1_393" x1="7.6457" y1="17.6313" x2="37.8135" y2="17.6313" gradientUnits="userSpaceOnUse">
<stop stop-color="#3AB4E6"/>
<stop offset="1" stop-color="#004996"/>
</linearGradient>
<linearGradient id="paint3_linear_1_393" x1="13.9163" y1="14.3541" x2="38.0776" y2="14.3541" gradientUnits="userSpaceOnUse">
<stop stop-color="#97BE11"/>
<stop offset="1" stop-color="#258F2D"/>
</linearGradient>
<linearGradient id="paint4_linear_1_393" x1="20.6393" y1="11.3866" x2="37.3038" y2="11.3866" gradientUnits="userSpaceOnUse">
<stop stop-color="#F08504"/>
<stop offset="1" stop-color="#E5322D"/>
</linearGradient>
<linearGradient id="paint5_linear_1_393" x1="26.4513" y1="8.50912" x2="37.2448" y2="8.50912" gradientUnits="userSpaceOnUse">
<stop stop-color="#E53282"/>
<stop offset="1" stop-color="#851D7B"/>
</linearGradient>
</defs>
</svg>
