<svg width="38" height="38" viewBox="0 0 38 38" fill="none" xmlns="http://www.w3.org/2000/svg">
<g clip-path="url(#clip0_40_12803)">
<path d="M18.5106 37.0213C28.7338 37.0213 37.0213 28.7338 37.0213 18.5106C37.0213 8.2875 28.7338 0 18.5106 0C8.2875 0 0 8.2875 0 18.5106C0 28.7338 8.2875 37.0213 18.5106 37.0213Z" fill="#2AA81A"/>
<path d="M25.0407 11.98C23.5003 10.4222 21.4538 9.46651 19.2706 9.28537C17.0874 9.10422 14.9114 9.70959 13.1354 10.9922C11.3594 12.2748 10.1005 14.1501 9.58598 16.2795C9.07144 18.4089 9.33517 20.6521 10.3296 22.6041L9.35532 27.3341C9.34489 27.3813 9.34449 27.4302 9.35414 27.4776C9.36379 27.525 9.38327 27.5699 9.41134 27.6093C9.45154 27.669 9.50899 27.7149 9.57603 27.7411C9.64306 27.7672 9.71646 27.7722 9.78643 27.7554L14.4141 26.657C16.3607 27.6253 18.5879 27.8715 20.699 27.3516C22.8101 26.8318 24.6683 25.5797 25.9428 23.8182C27.2173 22.0567 27.8254 19.9001 27.6589 17.7323C27.4923 15.5645 26.5619 13.5261 25.0333 11.98H25.0407ZM23.5939 23.5175C22.5286 24.5809 21.1568 25.2837 19.6714 25.527C18.186 25.7703 16.6617 25.542 15.3128 24.8741L14.665 24.5526L11.8226 25.2248V25.1883L12.4218 22.3216L12.1051 21.6981C11.4154 20.3455 11.1719 18.8092 11.4095 17.3097C11.6471 15.8101 12.3536 14.4244 13.4277 13.3512C14.7763 12.004 16.6045 11.2473 18.5108 11.2473C20.417 11.2473 22.2453 12.004 23.5939 13.3512L23.6256 13.3951C24.9567 14.7466 25.6997 16.5693 25.6929 18.4662C25.686 20.3632 24.9298 22.1805 23.589 23.5224L23.5939 23.5175Z" fill="white"/>
<path d="M23.3433 21.4327C22.9951 21.9807 22.4422 22.6505 21.7529 22.8186C20.5351 23.1108 18.6816 22.8186 16.3604 20.6728L16.3312 20.646C14.3121 18.7608 13.7763 17.1899 13.8956 15.9453C13.9662 15.2365 14.5557 14.5984 15.0525 14.1795C15.1315 14.1128 15.225 14.0656 15.3255 14.0416C15.426 14.0176 15.5307 14.0174 15.6313 14.041C15.7319 14.0647 15.8256 14.1116 15.9048 14.1779C15.984 14.2442 16.0467 14.3282 16.0877 14.423L16.8354 16.1133C16.8842 16.2221 16.9025 16.3422 16.8884 16.4606C16.8742 16.579 16.8281 16.6913 16.755 16.7856L16.3751 17.2727C16.2961 17.3738 16.249 17.4962 16.2399 17.6241C16.2308 17.7521 16.2601 17.8799 16.3239 17.9912C16.6848 18.5231 17.1167 19.0033 17.6075 19.4184C18.1356 19.9267 18.7344 20.3557 19.3855 20.6923C19.5043 20.7402 19.6347 20.7516 19.76 20.7251C19.8854 20.6987 20 20.6355 20.0894 20.5437L20.5253 20.1004C20.6083 20.0112 20.7143 19.9467 20.8317 19.914C20.949 19.8814 21.0731 19.8818 21.1903 19.9153L22.9683 20.4244C23.069 20.453 23.1616 20.505 23.2385 20.5761C23.3155 20.6472 23.3746 20.7354 23.4111 20.8336C23.4476 20.9317 23.4605 21.0371 23.4487 21.1412C23.437 21.2453 23.4009 21.3452 23.3433 21.4327Z" fill="white"/>
</g>
<defs>
<clipPath id="clip0_40_12803">
<rect width="37.0213" height="37.0213" fill="white"/>
</clipPath>
</defs>
</svg>
