<svg width="40" height="40" viewBox="0 0 40 40" fill="none" xmlns="http://www.w3.org/2000/svg">
<rect x="0.5" y="0.5" width="39" height="39" rx="19.5" fill="white"/>
<rect x="0.5" y="0.5" width="39" height="39" rx="19.5" stroke="#E4E4E4"/>
<g clip-path="url(#clip0_40_13138)">
<path d="M23.0787 18.6794L18.6602 16.2619C18.4061 16.1228 18.1058 16.128 17.8568 16.2756C17.6076 16.4233 17.459 16.6842 17.459 16.9738V21.7675C17.459 22.0558 17.6067 22.3162 17.8542 22.4641C17.9834 22.5413 18.1267 22.5801 18.2703 22.5801C18.4047 22.5799 18.5369 22.5462 18.655 22.4822L23.0736 20.1063C23.2023 20.0371 23.31 19.9345 23.3852 19.8092C23.4604 19.6839 23.5003 19.5406 23.5009 19.3945C23.5015 19.2483 23.4625 19.1047 23.3882 18.9788C23.3139 18.853 23.2069 18.7495 23.0787 18.6794ZM18.631 21.1645V17.5817L21.9334 19.3887L18.631 21.1645Z" fill="#67696E"/>
<path d="M29.8528 15.5753L29.8519 15.5661C29.835 15.4051 29.6664 13.9733 28.9703 13.245C28.1657 12.3883 27.2534 12.2843 26.8148 12.2344C26.7816 12.2307 26.7485 12.2267 26.7154 12.2225L26.6805 12.2188C24.0365 12.0266 20.0434 12.0003 20.0035 12.0002L20 12L19.9964 12.0002C19.9565 12.0003 15.9634 12.0266 13.2956 12.2188L13.2603 12.2225C13.2319 12.2263 13.2007 12.2298 13.1666 12.2338C12.733 12.2838 11.8306 12.388 11.0237 13.2756C10.3607 13.9962 10.1691 15.3974 10.1494 15.5548L10.1471 15.5753C10.1411 15.6423 10 17.237 10 18.8379V20.3345C10 21.9354 10.1411 23.5301 10.1471 23.5973L10.1482 23.6073C10.1651 23.7657 10.3336 25.1714 11.0264 25.8999C11.783 26.7279 12.7396 26.8374 13.2541 26.8963C13.3354 26.9056 13.4055 26.9136 13.4532 26.922L13.4994 26.9284C15.0261 27.0737 19.8126 27.1452 20.0155 27.1481L20.0216 27.1483L20.0277 27.1481C20.0677 27.1479 24.0606 27.1217 26.7047 26.9294L26.7396 26.9258C26.773 26.9213 26.8106 26.9174 26.8517 26.9131C27.283 26.8673 28.1805 26.7723 28.9762 25.8967C29.6392 25.1761 29.831 23.7748 29.8505 23.6175L29.8528 23.5971C29.8588 23.53 30.0001 21.9354 30.0001 20.3345V18.8379C29.9999 17.2369 29.8588 15.6424 29.8528 15.5753ZM28.8279 20.3345C28.8279 21.8162 28.6985 23.3423 28.6863 23.4823C28.6366 23.8683 28.4343 24.7548 28.1113 25.1059C27.6133 25.6538 27.1017 25.7081 26.7281 25.7477C26.6865 25.7519 26.6449 25.7566 26.6033 25.7617C24.046 25.9466 20.2037 25.975 20.0267 25.9761C19.8282 25.9732 15.1117 25.901 13.6316 25.7635C13.5557 25.7512 13.4738 25.7417 13.3874 25.7319C12.9494 25.6817 12.3497 25.6131 11.8886 25.1059L11.8777 25.0943C11.5603 24.7636 11.364 23.9346 11.3141 23.4869C11.3048 23.381 11.172 21.837 11.172 20.3345V18.8379C11.172 17.3578 11.3011 15.8335 11.3136 15.6905C11.373 15.2359 11.579 14.4031 11.8886 14.0665C12.4019 13.5019 12.9431 13.4394 13.3011 13.398C13.3353 13.394 13.3671 13.3904 13.3966 13.3866C15.9912 13.2007 19.8611 13.1731 20 13.172C20.1388 13.1729 24.0074 13.2007 26.5789 13.3866C26.6105 13.3905 26.645 13.3945 26.682 13.3988C27.0502 13.4407 27.6067 13.5042 28.1175 14.0489L28.1222 14.054C28.4396 14.3846 28.6359 15.2282 28.6858 15.6848C28.6947 15.7848 28.8279 17.3322 28.8279 18.8379V20.3345Z" fill="#67696E"/>
</g>
<defs>
<clipPath id="clip0_40_13138">
<rect width="20" height="20" fill="white" transform="translate(10 10)"/>
</clipPath>
</defs>
</svg>
